<svg width="56" height="56" viewBox="0 0 56 56" fill="none" xmlns="http://www.w3.org/2000/svg">
<path fill-rule="evenodd" clip-rule="evenodd" d="M47.3708 0H8.62925C3.86313 0 0 3.86313 0 8.62925V47.3708C0 52.136 3.86313 56 8.62925 56H47.3708C52.136 56 56 52.136 56 47.3708V8.62925C56 3.86313 52.136 0 47.3708 0ZM45.9725 39.4258H41.2615C39.7232 39.4258 39.5308 38.304 36.7106 35.6125C34.3315 33.2666 33.3139 33.0811 32.7373 33.0811C32.2245 33.0811 31.8719 33.4652 31.8719 34.363V37.9523C31.8719 39.0101 31.2629 39.4266 28.7639 39.4266C24.6619 39.4266 20.1119 36.8952 16.6504 32.2166C11.4914 25.263 10.1771 20.0707 10.1771 18.9499C10.1771 18.3409 10.626 17.9244 11.235 17.9244H15.4333C16.5226 17.9244 16.9391 18.2446 17.3241 19.3988C19.2465 25.039 22.6756 30.0055 24.1176 30.0055C24.6628 30.0055 24.7266 29.5566 24.7266 28.4034V22.6669C24.7266 19.887 23.156 19.6551 23.156 18.6287C23.156 18.2219 23.4762 17.9235 23.989 17.9235H30.7186C31.6155 17.9235 31.7441 18.2437 31.7441 19.3331V27.1197C31.7441 28.0087 31.9261 28.3378 32.3208 28.3378C32.8099 28.3378 33.2605 28.0411 34.1478 27.0559C36.9093 24.0082 39.179 19.1721 39.179 19.1721C39.4669 18.5631 39.8195 18.1466 40.7811 18.1466H44.9794C45.8124 18.1466 46.165 18.5955 46.0049 19.3961C45.5245 21.6396 40.6849 28.4646 40.6849 28.4646C40.236 29.1699 40.0444 29.554 40.6849 30.2269C41.1338 30.8035 42.5434 32.053 43.4088 33.2071C45.5236 35.4506 46.9018 37.3406 46.9018 38.3985C46.9018 39.2017 46.4529 39.4258 45.9725 39.4258Z" fill="#613CED"/>
</svg>
