<svg width="14" height="14" viewBox="0 0 14 14" fill="none" xmlns="http://www.w3.org/2000/svg">
<path d="M6.125 0C5.6 0 5.25 0.35 5.25 0.875V1.8375C2.275 2.275 0 4.8125 0 7.875C0 11.2875 2.7125 14 6.125 14C7.875 14 9.45 13.3 10.5 12.075L11.2875 12.6C11.8125 12.95 12.3375 12.6 12.5125 12.425C13.475 11.1125 14 9.5375 14 7.875C14 3.5 10.5 0 6.125 0ZM6.125 12.25C3.675 12.25 1.75 10.325 1.75 7.875C1.75 5.775 3.2375 4.025 5.25 3.5875V7.875C5.25 8.1375 5.425 8.4 5.6 8.575L9.1 11.025C8.3125 11.8125 7.2625 12.25 6.125 12.25Z" fill="#ACAAB9"/>
</svg>
