<svg width="208" height="20" viewBox="0 0 208 20" fill="none" xmlns="http://www.w3.org/2000/svg">
<g clip-path="url(#clip0_517_24342)">
<path d="M115.3 9.6543H113.549V11.2821H115.3V9.6543Z" stroke="#C9CACA" stroke-width="0.1856" stroke-miterlimit="10" stroke-dasharray="0.56 0.56"/>
<path d="M115.3 8.02637H113.549V9.6541H115.3V8.02637Z" stroke="#C9CACA" stroke-width="0.1856" stroke-miterlimit="10" stroke-dasharray="0.56 0.56"/>
<path d="M115.3 6.39844H113.549V8.0262H115.3V6.39844Z" stroke="#C9CACA" stroke-width="0.1856" stroke-miterlimit="10" stroke-dasharray="0.56 0.56"/>
<path d="M115.3 4.771H113.549V6.39875H115.3V4.771Z" stroke="#C9CACA" stroke-width="0.1856" stroke-miterlimit="10" stroke-dasharray="0.56 0.56"/>
<path d="M115.3 3.14307H113.549V4.77082H115.3V3.14307Z" stroke="#C9CACA" stroke-width="0.1856" stroke-miterlimit="10" stroke-dasharray="0.56 0.56"/>
<path d="M115.3 1.51514H113.549V3.1429H115.3V1.51514Z" stroke="#C9CACA" stroke-width="0.1856" stroke-miterlimit="10" stroke-dasharray="0.56 0.56"/>
<path d="M115.3 11.2817H113.549V12.9095H115.3V11.2817Z" stroke="#C9CACA" stroke-width="0.1856" stroke-miterlimit="10" stroke-dasharray="0.56 0.56"/>
<path d="M115.3 12.9414H113.549V14.5692H115.3V12.9414Z" stroke="#C9CACA" stroke-width="0.1856" stroke-miterlimit="10" stroke-dasharray="0.56 0.56"/>
<path d="M115.3 14.5693H113.549V16.1971H115.3V14.5693Z" stroke="#C9CACA" stroke-width="0.1856" stroke-miterlimit="10" stroke-dasharray="0.56 0.56"/>
<path d="M115.3 16.1973H113.549V17.825H115.3V16.1973Z" stroke="#C9CACA" stroke-width="0.1856" stroke-miterlimit="10" stroke-dasharray="0.56 0.56"/>
<path d="M115.3 17.8247H113.549V19.4525H115.3V17.8247Z" stroke="#C9CACA" stroke-width="0.1856" stroke-miterlimit="10" stroke-dasharray="0.56 0.56"/>
<path d="M-0.0778809 5.91992V8.15409H3.5266V16.9631H6.13555V8.15409H9.84302V5.91992H-0.0778809Z" fill="#070130"/>
<path d="M33.5983 14.8246C31.5729 14.8246 29.9595 13.2925 29.9595 11.4414C29.9595 9.55829 31.6072 8.05821 33.5983 8.05821C34.5938 8.05821 35.5207 8.44121 36.1729 9.04763L37.855 7.48371C36.7565 6.46238 35.2804 5.85596 33.5983 5.85596C30.2684 5.85596 27.5908 8.34546 27.5908 11.4414C27.5908 14.5373 30.2684 17.0268 33.5983 17.0268C35.246 17.0268 36.7565 16.3885 37.855 15.399L36.1729 13.8351C35.5207 14.4415 34.6281 14.8246 33.5983 14.8246Z" fill="#070130"/>
<path d="M50.1101 5.91992V10.3883H45.2698V5.91992H42.6608V10.3883H40.2578V12.6224H42.6608V16.9312H45.2698V12.6224H50.1101V16.9312H52.719V5.91992H50.1101Z" fill="#070130"/>
<path d="M17.2235 12.4948H22.819V10.3244H17.2235V8.09025H23.6085V5.91992H14.6488V10.3244H12.2458V12.4948H14.6488V16.9631H23.6772V14.7928H17.2235V12.4948Z" fill="#070130"/>
<path d="M79.1521 5.91992H76.5088V16.9631H85.0566V14.7608H79.1521V5.91992Z" fill="#070130"/>
<path d="M110.322 5.91992L107.439 10.3563L104.624 5.91992H101.568L106.134 12.5905V16.995H108.743V12.5586L113.309 5.91992H110.322Z" fill="#070130"/>
<path d="M96.3506 5.85596H93.9476L90.8924 12.5584H87.4939V14.7926H89.8969L88.9014 16.9949H91.579L92.5402 14.7926H97.7924L98.7536 16.9949H101.5L96.3506 5.85596ZM93.4327 12.5265L95.0805 8.76037L96.7282 12.5265H93.4327Z" fill="#070130"/>
<path d="M72.6297 8.18601C72.4237 7.70726 72.1148 7.32425 71.7372 6.97317C71.3596 6.62209 70.879 6.36675 70.3297 6.20717C69.7805 6.01567 69.1282 5.91992 68.4073 5.91992H62.3312V11.4734H59.9282V13.6438H62.3312V16.9631H64.9402V13.6438H68.1327C68.7849 13.6438 69.4372 13.548 70.0208 13.3884C70.6043 13.2288 71.1193 12.9735 71.5312 12.6543C71.9775 12.3352 72.3207 11.9203 72.561 11.4415C72.8013 10.9628 72.9387 10.3883 72.9387 9.74992V9.71801C72.9387 9.17542 72.8357 8.66476 72.6297 8.18601ZM70.2954 9.81375C70.2954 10.2925 70.1237 10.6755 69.7461 10.9947C69.3685 11.3138 68.8879 11.4734 68.2357 11.4734H64.9745V8.09025H68.2014C68.8536 8.09025 69.3685 8.21793 69.7461 8.50518C70.0894 8.82434 70.2954 9.23925 70.2954 9.81375Z" fill="#070130"/>
<path d="M125.77 5.76025H128.207L133.357 16.9949H130.61L129.512 14.5054H124.431L123.333 16.9949H120.655L125.77 5.76025ZM128.551 12.3351L126.972 8.72849L125.358 12.3351H128.551Z" fill="#070130"/>
<path d="M139.948 17.1865C139.261 17.1865 138.609 17.0588 138.025 16.8354C137.442 16.612 136.927 16.2928 136.515 15.8779C136.103 15.463 135.76 15.0162 135.519 14.4736C135.279 13.931 135.142 13.3565 135.142 12.7501C135.142 12.1437 135.279 11.5692 135.519 11.0266C135.76 10.484 136.103 10.0052 136.515 9.59032C136.927 9.17541 137.442 8.85624 138.025 8.63282C138.609 8.40941 139.261 8.28174 139.982 8.28174C140.84 8.28174 141.561 8.40941 142.145 8.66474C142.728 8.92008 143.209 9.27116 143.655 9.71799L142.076 11.3138C141.767 11.0266 141.458 10.8032 141.149 10.6117C140.84 10.4521 140.428 10.3563 139.982 10.3563C139.639 10.3563 139.364 10.4202 139.09 10.5478C138.815 10.6755 138.575 10.8351 138.403 11.0585C138.197 11.2819 138.06 11.5053 137.957 11.7926C137.854 12.0798 137.785 12.3671 137.785 12.6862V12.7182C137.785 13.0373 137.854 13.3565 137.957 13.6437C138.06 13.931 138.231 14.1863 138.437 14.4097C138.643 14.6332 138.884 14.7927 139.158 14.9204C139.433 15.0481 139.776 15.1119 140.119 15.1119C140.566 15.1119 140.943 15.0162 141.252 14.8566C141.596 14.697 141.905 14.4736 142.213 14.1863L143.758 15.6226C143.312 16.0694 142.797 16.4524 142.213 16.7397C141.596 17.0588 140.875 17.1865 139.948 17.1865Z" fill="#070130"/>
<path d="M149.182 17.1545C148.736 17.1545 148.324 17.0907 147.946 16.9949C147.569 16.8992 147.225 16.7077 146.951 16.4843C146.676 16.2609 146.436 15.9736 146.264 15.6544C146.093 15.3353 146.024 14.9523 146.024 14.5374V14.5054C146.024 14.0267 146.127 13.6437 146.299 13.2926C146.47 12.9415 146.745 12.6543 147.054 12.4309C147.363 12.2074 147.775 12.0479 148.221 11.9202C148.667 11.8244 149.182 11.7606 149.731 11.7606C150.212 11.7606 150.624 11.7925 150.967 11.8564C151.311 11.9202 151.654 12.0159 151.997 12.1117V11.9521C151.997 11.4414 151.825 11.0584 151.482 10.8031C151.139 10.5478 150.658 10.4201 150.006 10.4201C149.491 10.4201 149.045 10.452 148.667 10.5478C148.29 10.6116 147.878 10.7393 147.466 10.8989L146.813 9.04769C147.328 8.85619 147.843 8.69661 148.393 8.56894C148.942 8.44128 149.594 8.37744 150.384 8.37744C151.105 8.37744 151.722 8.4732 152.237 8.63278C152.752 8.79236 153.164 9.04769 153.508 9.33494C153.851 9.65411 154.091 10.0371 154.263 10.5159C154.434 10.9946 154.503 11.5053 154.503 12.0798V17.0269H151.963V16.1013C151.654 16.4204 151.276 16.7077 150.83 16.8992C150.384 17.0907 149.834 17.1545 149.182 17.1545ZM149.972 15.4949C150.59 15.4949 151.07 15.3672 151.448 15.0799C151.825 14.7927 151.997 14.4416 151.997 13.9948V13.5799C151.757 13.4841 151.516 13.4203 151.242 13.3564C150.967 13.2926 150.658 13.2607 150.349 13.2607C149.8 13.2607 149.354 13.3564 149.01 13.5799C148.702 13.7714 148.53 14.0586 148.53 14.4735V14.5054C148.53 14.8246 148.667 15.0799 148.908 15.2714C149.148 15.4629 149.56 15.4949 149.972 15.4949Z" fill="#070130"/>
<path d="M161.643 17.1547C161.094 17.1547 160.579 17.059 160.064 16.8675C159.549 16.676 159.103 16.3887 158.725 16.0057C158.348 15.6227 158.039 15.1759 157.798 14.6333C157.558 14.0907 157.455 13.4524 157.455 12.7502V12.7183C157.455 12.0161 157.558 11.3778 157.798 10.8352C158.039 10.2926 158.348 9.81387 158.725 9.46278C159.103 9.07978 159.549 8.79253 160.064 8.60103C160.579 8.40953 161.094 8.31378 161.643 8.31378C162.33 8.31378 162.913 8.44144 163.36 8.69678C163.806 8.95211 164.183 9.23937 164.492 9.59045V5.37744H167.101V17.027H164.492V15.8142C164.183 16.2291 163.772 16.5483 163.325 16.8036C162.913 17.027 162.33 17.1547 161.643 17.1547ZM162.33 15.112C162.639 15.112 162.913 15.0482 163.188 14.9525C163.463 14.8248 163.703 14.6652 163.874 14.4737C164.08 14.2503 164.218 14.0269 164.355 13.7077C164.458 13.4205 164.527 13.1013 164.527 12.7502V12.7183C164.527 12.3672 164.458 12.048 164.355 11.7608C164.218 11.4735 164.08 11.2182 163.874 10.9948C163.669 10.8033 163.428 10.6437 163.188 10.516C162.913 10.4203 162.639 10.3564 162.33 10.3564C162.021 10.3564 161.746 10.4203 161.471 10.516C161.197 10.6437 160.957 10.8033 160.751 10.9948C160.545 11.2182 160.373 11.4416 160.27 11.7289C160.133 12.0161 160.098 12.3353 160.098 12.6864V12.7183C160.098 13.0694 160.167 13.3885 160.27 13.6758C160.373 13.963 160.545 14.2184 160.751 14.4418C160.957 14.6333 161.197 14.7929 161.471 14.9205C161.746 15.0482 162.021 15.112 162.33 15.112Z" fill="#070130"/>
<path d="M174.997 17.1865C174.31 17.1865 173.658 17.0907 173.075 16.8673C172.491 16.6439 171.976 16.3567 171.53 15.9737C171.118 15.5907 170.775 15.1119 170.534 14.5693C170.294 14.0267 170.157 13.4203 170.157 12.782V12.7501C170.157 12.1437 170.26 11.5692 170.5 11.0266C170.706 10.484 171.049 10.0052 171.427 9.59032C171.839 9.17541 172.319 8.85624 172.869 8.63282C173.418 8.40941 174.036 8.28174 174.722 8.28174C175.478 8.28174 176.164 8.40941 176.713 8.66474C177.263 8.92008 177.743 9.27115 178.121 9.68607C178.499 10.101 178.773 10.6117 178.945 11.1862C179.116 11.7607 179.219 12.3352 179.219 12.9416C179.219 13.0373 179.219 13.1331 179.219 13.2607C179.219 13.3565 179.219 13.4842 179.185 13.5799H172.8C172.937 14.1225 173.178 14.5374 173.59 14.8247C174.002 15.1119 174.482 15.2396 175.066 15.2396C175.512 15.2396 175.89 15.1757 176.233 15.0162C176.576 14.8885 176.919 14.6651 177.297 14.3459L178.773 15.5587C178.327 16.0694 177.812 16.4524 177.194 16.7397C176.576 17.0269 175.821 17.1865 174.997 17.1865ZM176.679 12.0479C176.61 11.5053 176.404 11.0585 176.061 10.7393C175.718 10.4202 175.306 10.2287 174.722 10.2287C174.173 10.2287 173.727 10.3882 173.384 10.7074C173.04 11.0266 172.834 11.4734 172.731 12.0479H176.679Z" fill="#070130"/>
<path d="M182.275 8.4415H184.884V9.65433C185.021 9.46283 185.193 9.30326 185.364 9.14367C185.536 8.98409 185.742 8.8245 185.948 8.69683C186.154 8.56917 186.394 8.47342 186.669 8.37766C186.943 8.31383 187.252 8.25 187.561 8.25C188.179 8.25 188.694 8.37767 189.14 8.60109C189.587 8.8245 189.93 9.17559 190.17 9.62243C190.582 9.17559 191.028 8.8245 191.509 8.60109C191.99 8.37767 192.573 8.25 193.191 8.25C194.152 8.25 194.908 8.50533 195.491 9.04792C196.04 9.5905 196.315 10.3565 196.315 11.3778V16.9633H193.706V12.2077C193.706 11.6332 193.569 11.1863 193.294 10.8991C193.019 10.6118 192.642 10.4523 192.161 10.4523C191.681 10.4523 191.269 10.6118 190.994 10.8991C190.719 11.1863 190.582 11.6332 190.582 12.2077V16.9633H187.973V12.2077C187.973 11.6332 187.836 11.1863 187.596 10.8991C187.321 10.6118 186.943 10.4523 186.463 10.4523C185.982 10.4523 185.57 10.6118 185.296 10.8991C185.021 11.1863 184.884 11.6332 184.884 12.2077V16.9633H182.275V8.4415Z" fill="#070130"/>
<path d="M201.464 19.6123C200.984 19.6123 200.572 19.5484 200.194 19.4527C199.816 19.3569 199.473 19.1973 199.164 19.0058L200.022 17.2504C200.194 17.3462 200.366 17.41 200.572 17.5057C200.778 17.6015 200.949 17.6015 201.121 17.6015C201.361 17.6015 201.533 17.5696 201.67 17.4738C201.808 17.41 201.911 17.2504 202.048 17.027L198.443 8.44141H201.19L203.284 14.2502L205.275 8.44141H207.987L204.485 17.2185C204.313 17.6653 204.142 18.0164 203.936 18.3356C203.73 18.6547 203.524 18.8782 203.284 19.0697C203.043 19.2612 202.769 19.3888 202.494 19.4846C202.219 19.5803 201.876 19.6123 201.464 19.6123Z" fill="#070130"/>
</g>
<defs>
<clipPath id="clip0_517_24342">
<rect width="208" height="20" fill="white"/>
</clipPath>
</defs>
</svg>
