<svg width="12" height="14" viewBox="0 0 12 14" xmlns="http://www.w3.org/2000/svg">
<path d="M10.6667 1.99984H7.88C7.6 1.2265 6.86667 0.666504 6 0.666504C5.13333 0.666504 4.4 1.2265 4.12 1.99984H1.33333C0.6 1.99984 0 2.59984 0 3.33317V12.6665C0 13.3998 0.6 13.9998 1.33333 13.9998H10.6667C11.4 13.9998 12 13.3998 12 12.6665V3.33317C12 2.59984 11.4 1.99984 10.6667 1.99984ZM6 1.99984C6.36667 1.99984 6.66667 2.29984 6.66667 2.6665C6.66667 3.03317 6.36667 3.33317 6 3.33317C5.63333 3.33317 5.33333 3.03317 5.33333 2.6665C5.33333 2.29984 5.63333 1.99984 6 1.99984ZM7.33333 11.3332H2.66667V9.99984H7.33333V11.3332ZM9.33333 8.6665H2.66667V7.33317H9.33333V8.6665ZM9.33333 5.99984H2.66667V4.6665H9.33333V5.99984Z" />
</svg>
