<svg width="16" height="16" viewBox="0 0 16 16" xmlns="http://www.w3.org/2000/svg">
<path d="M7.99225 0.332031C3.76025 0.332031 0.333252 3.7667 0.333252 7.9987C0.333252 12.2307 3.76025 15.6654 7.99225 15.6654C12.2319 15.6654 15.6666 12.2307 15.6666 7.9987C15.6666 3.7667 12.2319 0.332031 7.99225 0.332031ZM7.99992 14.132C4.61125 14.132 1.86659 11.3874 1.86659 7.9987C1.86659 4.61003 4.61125 1.86536 7.99992 1.86536C11.3886 1.86536 14.1333 4.61003 14.1333 7.9987C14.1333 11.3874 11.3886 14.132 7.99992 14.132ZM8.38325 4.16536H7.23325V8.76536L11.2583 11.1804L11.8333 10.2374L8.38325 8.19036V4.16536Z" />
</svg>
