<svg width="16" height="14" viewBox="0 0 16 14" xmlns="http://www.w3.org/2000/svg">
<path d="M14.8521 9.66177L13.907 9.12802L8.71506 12.061C8.49622 12.1846 8.24915 12.2496 7.99781 12.2496C7.74647 12.2496 7.4994 12.1846 7.28056 12.061L2.08859 9.12744L1.14353 9.66119C1.09836 9.68654 1.06076 9.72347 1.03459 9.76816C1.00842 9.81286 0.994629 9.86372 0.994629 9.91552C0.994629 9.96732 1.00842 10.0182 1.03459 10.0629C1.06076 10.1076 1.09836 10.1445 1.14353 10.1699L7.85226 13.9615C7.89604 13.9862 7.94548 13.9992 7.99577 13.9992C8.04606 13.9992 8.0955 13.9862 8.13928 13.9615L14.848 10.1699C14.8932 10.1445 14.9308 10.1076 14.9569 10.0629C14.9831 10.0182 14.9969 9.96732 14.9969 9.91552C14.9969 9.86372 14.9831 9.81286 14.9569 9.76816C14.9308 9.72347 14.8932 9.68654 14.848 9.66119L14.8521 9.66177Z"/>
<path d="M14.8521 6.74576L13.907 6.21201L8.71506 9.14499C8.49622 9.26859 8.24915 9.33354 7.99781 9.33354C7.74647 9.33354 7.4994 9.26859 7.28056 9.14499L2.08859 6.21143L1.14353 6.74517C1.09836 6.77053 1.06076 6.80745 1.03459 6.85215C1.00842 6.89685 0.994629 6.94771 0.994629 6.9995C0.994629 7.0513 1.00842 7.10216 1.03459 7.14686C1.06076 7.19156 1.09836 7.22848 1.14353 7.25384L7.85226 11.0455C7.89604 11.0702 7.94548 11.0832 7.99577 11.0832C8.04606 11.0832 8.0955 11.0702 8.13928 11.0455L14.848 7.25384C14.8932 7.22848 14.9308 7.19156 14.9569 7.14686C14.9831 7.10216 14.9969 7.0513 14.9969 6.9995C14.9969 6.94771 14.9831 6.89685 14.9569 6.85215C14.9308 6.80745 14.8932 6.77053 14.848 6.74517L14.8521 6.74576Z" />
<path d="M14.8524 3.82879L8.14367 0.0371462C8.09977 0.0127836 8.05038 0 8.00016 0C7.94995 0 7.90056 0.0127836 7.85666 0.0371462L1.14793 3.82879C1.10276 3.85414 1.06516 3.89107 1.03899 3.93576C1.01282 3.98046 0.999023 4.03132 0.999023 4.08312C0.999023 4.13491 1.01282 4.18578 1.03899 4.23047C1.06516 4.27517 1.10276 4.3121 1.14793 4.33745L7.85666 8.12909C7.90044 8.15383 7.94987 8.16684 8.00016 8.16684C8.05045 8.16684 8.09989 8.15383 8.14367 8.12909L14.8524 4.33745C14.8976 4.3121 14.9352 4.27517 14.9613 4.23047C14.9875 4.18578 15.0013 4.13491 15.0013 4.08312C15.0013 4.03132 14.9875 3.98046 14.9613 3.93576C14.9352 3.89107 14.8976 3.85414 14.8524 3.82879Z" />
</svg>
