<svg width="16" height="16" xmlns="http://www.w3.org/2000/svg"><path fill-rule="evenodd" clip-rule="evenodd" d="M8 .199219c-4.4 0-8 3.600001-8 8.000001 0 3.53338 2.26667 6.53338 5.46667 7.59998.4.0667.53333-.2.53333-.4v-1.3333c-2.2.4667-2.66667-1.0667-2.66667-1.0667-.33333-.9333-.86666-1.2-.86666-1.2-.8-.4666 0-.4666 0-.4666.8.0666 1.2.8 1.2.8.73333 1.2 1.86666.8666 2.33333.6666.06667-.5333.26667-.8666.53333-1.0666-1.8-.2-3.66666-.8667-3.66666-3.93338 0-.86667.33333-1.6.8-2.13334 0-.26666-.33334-1.06666.13333-2.13333 0 0 .66667-.2 2.2.8.66667-.2 1.33333-.26666 2-.26666.66667 0 1.33333.06666 2 .26666 1.5333-1.06666 2.2-.8 2.2-.8.4667 1.13333.1333 1.93334.0667 2.13333.5333.53334.8 1.26667.8 2.13334 0 3.06668-1.8667 3.73338-3.6667 3.93338.26667.2666.53333.7333.53333 1.4666v2.2c0 .2.13337.4667.53337.4 3.2-1.0666 5.4666-4.0666 5.4666-7.59998C16 3.79922 12.4.199219 8 .199219Z"/></svg>