<svg width="267" height="256" viewBox="0 0 267 256" fill="none" xmlns="http://www.w3.org/2000/svg">
<g id="Group 101">
<circle id="Ellipse 18" cx="128" cy="128" r="128" fill="white"/>
<g id="Group 87">
<g id="Frame 253" clip-path="url(#clip0_2578_20109)">
<g id="Group">
<g id="Group_2">
<path id="Vector" d="M160.38 226.38H157.637V206.615H135.116V236.099V236.098C135.1 238.565 136.036 240.936 137.719 242.687C139.403 244.437 141.692 245.422 144.08 245.422H160.38C163.674 245.422 166.718 243.606 168.364 240.661C170.011 237.715 170.011 234.085 168.364 231.14C166.718 228.195 163.674 226.38 160.38 226.38L160.38 226.38Z" fill="#BFB6FF"/>
<path id="Vector_2" d="M97.6755 226.371H94.8991C91.6066 226.371 88.5625 228.185 86.9163 231.131C85.2701 234.076 85.2701 237.706 86.9163 240.651C88.5625 243.597 91.6066 245.412 94.8991 245.412H111.201C113.578 245.412 115.858 244.436 117.539 242.7C119.218 240.964 120.164 238.61 120.164 236.154V206.672H97.8345L97.6755 226.371Z" fill="#BFB6FF"/>
<path id="Vector_3" d="M54 146.591V179.864C54 183.16 55.7022 186.204 58.4649 187.852C61.2293 189.499 64.6338 189.499 67.3967 187.852C70.161 186.204 71.8631 183.16 71.8631 179.864V146.591C71.8541 145.896 72.1158 145.225 72.5894 144.73C73.063 144.235 73.7091 143.956 74.3824 143.956H75.9771L75.9787 129.264C75.9817 128.036 76.0982 126.812 76.3282 125.607H74.3824C68.9913 125.617 63.8211 127.828 60.0023 131.759C56.1835 135.691 54.0256 141.024 54 146.591L54 146.591Z" fill="#BFB6FF"/>
<path id="Vector_4" d="M161.123 116.943H142.782V109.433H158.731C161.872 109.433 164.885 108.14 167.1 105.84C169.314 103.539 170.551 100.422 170.534 97.1784V73.0322C170.508 69.8164 169.254 66.7411 167.044 64.477C164.833 62.2113 161.845 60.9409 158.731 60.9409H130.851V53.8922C133.712 52.8469 135.924 50.464 136.813 47.4671C137.701 44.4701 137.159 41.2169 135.356 38.698C133.55 36.1775 130.695 34.6914 127.662 34.6914C124.628 34.6914 121.773 36.1774 119.968 38.698C118.164 41.2168 117.623 44.4702 118.511 47.4671C119.399 50.4642 121.611 52.847 124.472 53.8922V60.9409H96.5609C93.438 60.9409 90.4451 62.2222 88.2377 64.502C86.0301 66.7818 84.7894 69.8742 84.7894 73.0976V97.1782C84.7894 100.402 86.0301 103.494 88.2377 105.774C90.4452 108.054 93.4381 109.333 96.5609 109.333H112.51V116.943H94.1687C91.0382 116.943 88.0363 118.227 85.8226 120.513C83.6089 122.799 82.3652 125.899 82.3652 129.132V187.771V187.769C82.3652 191.002 83.609 194.102 85.8226 196.389C88.0362 198.675 91.0382 199.959 94.1687 199.959H161.156H161.154C164.285 199.959 167.287 198.675 169.5 196.389C171.714 194.102 172.958 191.002 172.958 187.769V129.263C172.993 126.002 171.759 122.863 169.535 120.547C167.311 118.233 164.282 116.934 161.123 116.942L161.123 116.943ZM143.611 73.3931C146.631 73.3931 149.529 74.6323 151.664 76.8386C153.8 79.0434 155 82.0356 155 85.1545C155 88.2734 153.8 91.264 151.664 93.4705C149.529 95.6753 146.631 96.9144 143.611 96.9144C140.591 96.9144 137.695 95.6753 135.559 93.4705C133.424 91.2642 132.224 88.2735 132.224 85.1545C132.224 82.0357 133.424 79.0435 135.559 76.8386C137.695 74.6323 140.591 73.3931 143.611 73.3931ZM125.875 130.516H129.417C131.178 130.516 132.607 131.991 132.607 133.811C132.607 135.63 131.178 137.105 129.417 137.105H125.875C124.114 137.105 122.685 135.63 122.685 133.811C122.685 131.991 124.114 130.516 125.875 130.516ZM132.605 145.735H132.607C132.607 146.608 132.271 147.448 131.672 148.065C131.074 148.682 130.263 149.03 129.417 149.03H125.875C124.114 149.03 122.685 147.555 122.685 145.735C122.685 143.916 124.114 142.441 125.875 142.441H129.417C130.263 142.441 131.074 142.788 131.672 143.407C132.271 144.024 132.607 144.862 132.607 145.735H132.605ZM111.713 96.9129C108.692 96.9129 105.795 95.6738 103.66 93.469C101.524 91.2627 100.324 88.272 100.324 85.1531C100.324 82.0342 101.524 79.042 103.66 76.8371C105.795 74.6308 108.692 73.3917 111.713 73.3917C114.733 73.3917 117.628 74.6308 119.765 76.8371C121.9 79.0419 123.1 82.0341 123.1 85.1531C123.1 88.272 121.9 91.2625 119.765 93.469C117.629 95.6738 114.733 96.9129 111.713 96.9129ZM149.577 180.06C149.577 181.807 148.904 183.484 147.708 184.72C146.511 185.954 144.888 186.65 143.197 186.65H112.127C110.436 186.65 108.812 185.954 107.616 184.72C106.42 183.484 105.747 181.807 105.747 180.06V164.743C105.747 162.996 106.42 161.319 107.616 160.083C108.812 158.849 110.436 158.153 112.127 158.153H143.197C144.888 158.153 146.512 158.849 147.708 160.083C148.904 161.319 149.577 162.996 149.577 164.743V180.06Z" fill="#BFB6FF"/>
<path id="Vector_5" d="M111.953 166.016H143.054V181.333H111.953V166.016Z" fill="#BFB6FF"/>
</g>
</g>
<rect id="Rectangle 188" x="102.23" y="155.572" width="49.8938" height="33.2625" fill="#BFB6FF"/>
<text id="TPA" fill="white" xml:space="preserve" style="white-space: pre" font-family="DM Sans" font-size="12" font-weight="bold" letter-spacing="0em"><tspan x="115.894" y="172.127">TPA</tspan></text>
</g>
<g id="Group 85">
<g id="64px_robot 1" clip-path="url(#clip1_2578_20109)">
<g id="Group_3">
<path id="Vector_6" d="M102.519 26.459V33.1345H105.775V26.459C107.752 26.0555 109.508 24.9324 110.704 23.3075C111.899 21.6826 112.449 19.6716 112.246 17.6644C112.044 15.6572 111.103 13.7968 109.606 12.4438C108.11 11.0909 106.164 10.3418 104.147 10.3418C102.129 10.3418 100.184 11.0909 98.6872 12.4438C97.1907 13.7968 96.2499 15.6572 96.0471 17.6644C95.8443 19.6716 96.3941 21.6826 97.5898 23.3075C98.7854 24.9324 100.542 26.0555 102.519 26.459Z" fill="#BFB6FF"/>
<path id="Vector_7" d="M148.106 26.459V33.1345H151.363V26.459C153.339 26.0555 155.096 24.9324 156.292 23.3075C157.487 21.6826 158.037 19.6716 157.834 17.6644C157.631 15.6572 156.691 13.7968 155.194 12.4438C153.698 11.0909 151.752 10.3418 149.735 10.3418C147.717 10.3418 145.772 11.0909 144.275 12.4438C142.779 13.7968 141.838 15.6572 141.635 17.6644C141.432 19.6716 141.982 21.6826 143.178 23.3075C144.373 24.9324 146.13 26.0555 148.106 26.459Z" fill="#BFB6FF"/>
<path id="Vector_8" d="M161.132 36.3926H92.7492C90.5909 36.3952 88.5218 37.2537 86.9956 38.7798C85.4695 40.306 84.611 42.3751 84.6084 44.5334V103.147C84.611 105.306 85.4695 107.375 86.9956 108.901C88.5218 110.427 90.5909 111.286 92.7492 111.288H161.132C163.291 111.286 165.36 110.427 166.886 108.901C168.412 107.375 169.271 105.306 169.273 103.147V44.5334C169.271 42.3751 168.412 40.306 166.886 38.7798C165.36 37.2537 163.291 36.3952 161.132 36.3926ZM107.403 52.6743C109.013 52.6743 110.587 53.1517 111.926 54.0462C113.264 54.9408 114.308 56.2122 114.924 57.6997C115.54 59.1873 115.701 60.8241 115.387 62.4033C115.073 63.9825 114.298 65.433 113.159 66.5715C112.021 67.71 110.57 68.4854 108.991 68.7995C107.412 69.1136 105.775 68.9524 104.287 68.3362C102.8 67.7201 101.528 66.6767 100.634 65.3379C99.7394 63.9991 99.2619 62.4252 99.2619 60.8151C99.2619 58.656 100.12 56.5854 101.646 55.0586C103.173 53.5319 105.244 52.6743 107.403 52.6743ZM154.62 96.6348C154.62 97.0666 154.448 97.4807 154.143 97.7861C153.837 98.0914 153.423 98.2629 152.991 98.2629H100.89C100.458 98.2629 100.044 98.0914 99.7388 97.7861C99.4334 97.4807 99.2619 97.0666 99.2619 96.6348V80.3531C99.2619 79.9213 99.4334 79.5072 99.7388 79.2018C100.044 78.8965 100.458 78.7249 100.89 78.7249H152.991C153.423 78.7249 153.837 78.8965 154.143 79.2018C154.448 79.5072 154.62 79.9213 154.62 80.3531V96.6348ZM146.479 68.9559C144.869 68.9559 143.295 68.4785 141.956 67.584C140.617 66.6894 139.574 65.418 138.958 63.9305C138.341 62.4429 138.18 60.8061 138.494 59.2269C138.808 57.6477 139.584 56.1972 140.722 55.0586C141.861 53.9201 143.311 53.1448 144.891 52.8307C146.47 52.5166 148.107 52.6778 149.594 53.2939C151.082 53.9101 152.353 54.9535 153.248 56.2923C154.142 57.631 154.62 59.205 154.62 60.8151C154.62 62.9742 153.762 65.0448 152.235 66.5715C150.708 68.0982 148.638 68.9559 146.479 68.9559Z" fill="#BFB6FF"/>
<path id="Vector_9" d="M76.4678 65.6965V81.9782C76.4678 82.41 76.6393 82.8241 76.9447 83.1295C77.25 83.4348 77.6641 83.6064 78.0959 83.6064H81.3523V64.0684H78.0959C77.6641 64.0684 77.25 64.2399 76.9447 64.5452C76.6393 64.8506 76.4678 65.2647 76.4678 65.6965Z" fill="#BFB6FF"/>
<path id="Vector_10" d="M175.787 64.0684H172.53V83.6064H175.787C176.218 83.6064 176.633 83.4348 176.938 83.1295C177.243 82.8241 177.415 82.41 177.415 81.9782V65.6965C177.415 65.2647 177.243 64.8506 176.938 64.5452C176.633 64.2399 176.218 64.0684 175.787 64.0684Z" fill="#BFB6FF"/>
</g>
</g>
</g>
<path id="arm" class="arm" d="M179.324 125.729H211.205C216.062 125.729 220 129.666 220 134.523C220 139.38 216.062 143.318 211.205 143.318H179.324V125.729Z" fill="#BFB6FF"/>
</g>
<path id="plane" class="plane" d="M266.437 117.839C266.387 117.651 266.282 117.482 266.137 117.352C265.991 117.222 265.811 117.138 265.619 117.109L219.879 110.332C219.685 110.303 219.485 110.332 219.307 110.416C219.129 110.5 218.979 110.634 218.877 110.803C218.775 110.971 218.725 111.166 218.733 111.363C218.741 111.56 218.808 111.75 218.924 111.909L228.551 125.143L243.615 123.955L229.975 130.458L228.254 146.732C228.234 146.924 228.27 147.118 228.358 147.291C228.445 147.463 228.581 147.607 228.749 147.703L228.767 147.714C228.94 147.809 229.137 147.85 229.333 147.834C229.529 147.817 229.717 147.743 229.871 147.62L266.093 118.881C266.246 118.76 266.36 118.597 266.421 118.412C266.482 118.227 266.488 118.028 266.437 117.839V117.839Z" fill="#BFB6FF"/>
</g>
<defs>
<clipPath id="clip0_2578_20109">
<rect width="147.311" height="134.179" fill="white" transform="translate(54 111.203)"/>
</clipPath>
<clipPath id="clip1_2578_20109">
<rect width="104.203" height="104.203" fill="white" transform="translate(75.4111 7)"/>
</clipPath>
</defs>
</svg>
