<svg width="256" height="257" viewBox="0 0 256 257" fill="none" xmlns="http://www.w3.org/2000/svg">
<g id="Group 101">
<circle id="Ellipse 18" cx="128" cy="129" r="128" fill="white"/>
<g id="bug" class="bug" clip-path="url(#clip2_2807_18387)">
    <path id="bug-body" class="bug-body" d="M234.207 255.28L223.58 247.227L219.554 252.541L214.24 248.514L218.267 243.201L210.297 237.161C209.592 236.627 209.128 235.835 209.008 234.959C208.887 234.084 209.119 233.196 209.653 232.491L215.693 224.521L210.379 220.495L214.406 215.181L219.719 219.208L227.772 208.581L222.459 204.554L226.485 199.241L231.799 203.267L237.838 195.297C238.372 194.593 239.164 194.129 240.04 194.008C240.916 193.888 241.804 194.12 242.508 194.654L250.478 200.693L254.505 195.38L259.818 199.407L255.792 204.72L266.418 212.773L270.445 207.459L275.758 211.486L271.732 216.799L279.702 222.839C280.407 223.373 280.87 224.165 280.991 225.041C281.112 225.916 280.879 226.804 280.345 227.509L274.306 235.479L279.619 239.505L275.593 244.819L270.279 240.792L262.226 251.419L267.54 255.446L263.513 260.759L258.2 256.733L252.16 264.703C251.626 265.407 250.834 265.871 249.959 265.992C249.083 266.112 248.195 265.88 247.49 265.346L239.52 259.306L235.494 264.62L230.18 260.593L234.207 255.28ZM241.782 206.65L233.729 217.277L244.356 225.33L252.409 214.703L241.782 206.65Z" fill="#BBB1FF"/>
    <path id="bug-line" class="bug-line" d="M209.426 234.794L221.99 235.98L224.511 232.875L228.294 228.218L242.266 239.566L247.94 232.579L256.479 239.514L264.359 229.811L270.569 234.855L276.243 227.869L282.573 227.213" stroke="#F6F5FF" stroke-width="4"/>
</g>
<g id="Group 87">
<g id="Frame 253" clip-path="url(#clip0_2807_18387)">
<g id="Group">
<g id="Group_2">
<path id="Vector" d="M162.12 229.153H159.254V208.508H135.731V239.305V239.304C135.713 241.881 136.692 244.357 138.449 246.187C140.208 248.015 142.599 249.043 145.093 249.043H162.12C165.56 249.043 168.74 247.146 170.46 244.07C172.179 240.993 172.179 237.201 170.46 234.125C168.74 231.048 165.56 229.153 162.12 229.153L162.12 229.153Z" fill="#8D7CFF" fill-opacity="0.56"/>
<path id="Vector_2" d="M96.6219 229.143H93.7217C90.2827 229.143 87.1029 231.038 85.3834 234.115C83.6639 237.191 83.6639 240.983 85.3834 244.06C87.1029 247.136 90.2827 249.033 93.7217 249.033H110.75C113.233 249.033 115.614 248.012 117.37 246.199C119.124 244.386 120.112 241.928 120.112 239.362V208.566H96.7879L96.6219 229.143Z" fill="#8D7CFF" fill-opacity="0.56"/>
<rect id="arm-right" x="169" y="130.516" width="16" height="48" rx="8" transform="rotate(-31.61 169 130.516)" fill="#BFB6FF"/>
<g id="arm-tool-left" class="arm-tool-left">
<rect id="arm-left" class="arm-left" x="75.707" y="122.621" width="16" height="48" rx="8" transform="rotate(31.6138 75.707 122.621)" fill="#BFB6FF"/>
<path id="tool-left" class="tool-left" d="M36.3868 151.86C37.4283 151.145 38.6514 150.74 39.914 150.692C41.1765 150.645 42.4266 150.956 43.5189 151.591C44.6112 152.226 45.5009 153.158 46.0844 154.279C46.668 155.399 46.9215 156.663 46.8154 157.922L72.1035 172.613L69.2283 177.559L43.9408 162.87C42.8993 163.585 41.6762 163.99 40.4136 164.037C39.1511 164.085 37.901 163.773 36.8087 163.138C35.7164 162.503 34.8267 161.571 34.2431 160.451C33.6596 159.33 33.4061 158.067 33.5121 156.808L38.7265 159.839C39.0515 160.035 39.4124 160.165 39.7881 160.22C40.1639 160.276 40.5469 160.256 40.9148 160.162C41.2828 160.068 41.6283 159.901 41.9313 159.672C42.2342 159.443 42.4885 159.156 42.6793 158.828C42.8701 158.499 42.9936 158.136 43.0425 157.759C43.0915 157.383 43.065 157 42.9645 156.634C42.864 156.268 42.6915 155.925 42.4572 155.626C42.2229 155.327 41.9314 155.078 41.5998 154.893L36.3845 151.858L36.3868 151.86Z" fill="#BFB6FF"/>
</g>
<rect id="Rectangle 274" x="77" y="116" width="102" height="89" fill="white"/>
<path id="Vector_3" d="M162.895 114.841H143.737V106.997H160.396C163.677 106.997 166.824 105.646 169.138 103.243C171.451 100.841 172.743 97.5844 172.725 94.1962V68.9744C172.698 65.6154 171.388 62.4031 169.079 60.0381C166.77 57.6715 163.649 56.3446 160.396 56.3446H131.274V48.9819C134.263 47.8899 136.574 45.4009 137.502 42.2706C138.429 39.1401 137.864 35.7419 135.98 33.1108C134.094 30.4781 131.112 28.9258 127.943 28.9258C124.774 28.9258 121.792 30.478 119.907 33.1108C118.023 35.7419 117.457 39.1402 118.385 42.2706C119.312 45.4011 121.623 47.8901 124.612 48.9819V56.3446H95.4569C92.1948 56.3446 89.0687 57.6829 86.7629 60.0642C84.457 62.4456 83.1611 65.6758 83.1611 69.0427V94.196C83.1611 97.5631 84.457 100.793 86.7629 103.174C89.0688 105.556 92.1951 106.892 95.4569 106.892H112.117V114.841H92.9581C89.6882 114.841 86.5525 116.183 84.2403 118.57C81.928 120.958 80.6289 124.197 80.6289 127.574V188.824V188.822C80.6289 192.199 81.928 195.438 84.2403 197.825C86.5525 200.213 89.6882 201.555 92.9581 201.555H162.929H162.928C166.198 201.555 169.333 200.213 171.645 197.825C173.958 195.438 175.257 192.199 175.257 188.822V127.71C175.293 124.303 174.005 121.024 171.682 118.606C169.359 116.188 166.195 114.832 162.894 114.84L162.895 114.841ZM144.603 69.3514C147.757 69.3514 150.784 70.6458 153.014 72.9504C155.246 75.2534 156.499 78.3789 156.499 81.6367C156.499 84.8946 155.246 88.0183 153.014 90.3231C150.784 92.6261 147.758 93.9204 144.603 93.9204C141.448 93.9204 138.423 92.6261 136.192 90.3231C133.962 88.0185 132.708 84.8946 132.708 81.6367C132.708 78.3789 133.962 75.2535 136.192 72.9504C138.423 70.6458 141.448 69.3514 144.603 69.3514ZM126.077 129.018H129.777C131.616 129.018 133.108 130.559 133.108 132.461C133.108 134.36 131.616 135.901 129.777 135.901H126.077C124.237 135.901 122.745 134.36 122.745 132.461C122.745 130.559 124.237 129.018 126.077 129.018ZM133.107 144.916H133.108C133.108 145.828 132.757 146.705 132.131 147.349C131.507 147.994 130.66 148.358 129.777 148.358H126.077C124.237 148.358 122.745 146.817 122.745 144.916C122.745 143.016 124.237 141.475 126.077 141.475H129.777C130.66 141.475 131.507 141.837 132.131 142.484C132.757 143.128 133.108 144.003 133.108 144.916H133.107ZM111.283 93.9189C108.129 93.9189 105.102 92.6246 102.872 90.3216C100.641 88.017 99.3874 84.8931 99.3874 81.6352C99.3874 78.3774 100.641 75.2519 102.872 72.9488C105.102 70.6442 108.129 69.3499 111.283 69.3499C114.438 69.3499 117.463 70.6442 119.695 72.9488C121.925 75.2518 123.178 78.3773 123.178 81.6352C123.178 84.893 121.925 88.0168 119.695 90.3216C117.463 92.6246 114.438 93.9189 111.283 93.9189ZM150.834 180.77C150.834 182.595 150.131 184.346 148.883 185.637C147.633 186.926 145.937 187.653 144.17 187.653H111.717C109.95 187.653 108.254 186.926 107.004 185.637C105.755 184.346 105.052 182.595 105.052 180.77V164.77C105.052 162.945 105.755 161.194 107.004 159.903C108.254 158.614 109.95 157.887 111.717 157.887H144.17C145.937 157.887 147.633 158.614 148.883 159.903C150.131 161.194 150.834 162.945 150.834 164.77V180.77Z" fill="#8D7CFF" fill-opacity="0.56"/>
<path id="Vector_4" d="M111.535 166.098H144.021V182.098H111.535V166.098Z" fill="#8D7CFF" fill-opacity="0.56"/>
</g>
</g>

<rect id="Rectangle 188" x="101.379" y="155.191" width="52.1163" height="34.7442" fill="#BFB6FF"/>
<rect id="Rectangle 188_2" x="92" y="154" width="72" height="40" fill="#BFB6FF"/>
<text id="TPA" fill="white" xml:space="preserve" style="white-space: pre" font-family="DM Sans" font-size="20" font-weight="bold" letter-spacing="0em"><tspan x="109" y="180.82">TPA</tspan></text>
</g>
<g id="Group 85">
<g id="64px_robot 1" clip-path="url(#clip1_2807_18387)">
<g id="Group_3">
<path id="Vector_5" d="M90.2003 25.2L97.1732 25.2L97.1732 21.8L90.2003 21.8C89.7789 19.7361 88.6058 17.9022 86.9085 16.6538C85.2112 15.4053 83.1106 14.8313 81.014 15.0431C78.9174 15.2548 76.9741 16.2371 75.5609 17.7997C74.1477 19.3622 73.3652 21.3936 73.3652 23.5C73.3652 25.6064 74.1477 27.6378 75.5609 29.2003C76.9741 30.7629 78.9174 31.7452 81.014 31.9569C83.1106 32.1687 85.2112 31.5947 86.9085 30.3462C88.6058 29.0978 89.7789 27.2639 90.2003 25.2V25.2Z" fill="#8D7CFF" fill-opacity="0.56"/>
<path id="Vector_6" d="M162.905 30.7031H91.4761C89.2217 30.7058 87.0604 31.6026 85.4662 33.1967C83.8721 34.7908 82.9754 36.9522 82.9727 39.2066V100.432C82.9754 102.686 83.8721 104.847 85.4662 106.441C87.0604 108.035 89.2217 108.932 91.4761 108.935H162.905C165.16 108.932 167.321 108.035 168.915 106.441C170.509 104.847 171.406 102.686 171.409 100.432V39.2066C171.406 36.9522 170.509 34.7908 168.915 33.1967C167.321 31.6026 165.16 30.7058 162.905 30.7031V30.7031ZM106.782 47.71C108.464 47.71 110.108 48.2088 111.507 49.1431C112.905 50.0775 113.995 51.4056 114.639 52.9594C115.282 54.5132 115.451 56.2229 115.122 57.8725C114.794 59.522 113.984 61.0371 112.795 62.2264C111.606 63.4156 110.091 64.2255 108.441 64.5536C106.792 64.8817 105.082 64.7133 103.528 64.0697C101.974 63.4261 100.646 62.3362 99.712 60.9378C98.7776 59.5394 98.2789 57.8953 98.2789 56.2135C98.2789 53.9582 99.1748 51.7954 100.769 50.2007C102.364 48.6059 104.527 47.71 106.782 47.71V47.71ZM156.102 93.6287C156.102 94.0798 155.923 94.5124 155.604 94.8313C155.285 95.1502 154.853 95.3294 154.402 95.3294H99.9796C99.5285 95.3294 99.096 95.1502 98.777 94.8313C98.4581 94.5124 98.2789 94.0798 98.2789 93.6287V76.6218C98.2789 76.1708 98.4581 75.7382 98.777 75.4192C99.096 75.1003 99.5285 74.9211 99.9796 74.9211H154.402C154.853 74.9211 155.285 75.1003 155.604 75.4192C155.923 75.7382 156.102 76.1708 156.102 76.6218V93.6287ZM147.599 64.717C145.917 64.717 144.273 64.2183 142.875 63.2839C141.476 62.3495 140.386 61.0214 139.743 59.4676C139.099 57.9138 138.931 56.2041 139.259 54.5546C139.587 52.9051 140.397 51.3899 141.586 50.2007C142.775 49.0114 144.291 48.2015 145.94 47.8734C147.59 47.5453 149.299 47.7137 150.853 48.3573C152.407 49.0009 153.735 50.0909 154.669 51.4892C155.604 52.8876 156.102 54.5317 156.102 56.2135C156.102 58.4688 155.207 60.6317 153.612 62.2264C152.017 63.8211 149.854 64.717 147.599 64.717Z" fill="#8D7CFF" fill-opacity="0.56"/>
<path id="Vector_7" d="M74.4707 61.314V78.3209C74.4707 78.7719 74.6499 79.2045 74.9688 79.5235C75.2878 79.8424 75.7203 80.0216 76.1714 80.0216H79.5728V59.6133H76.1714C75.7203 59.6133 75.2878 59.7925 74.9688 60.1114C74.6499 60.4303 74.4707 60.8629 74.4707 61.314V61.314Z" fill="#8D7CFF" fill-opacity="0.56"/>
<path id="Vector_8" d="M178.212 59.6133H174.811V80.0216H178.212C178.663 80.0216 179.096 79.8424 179.415 79.5235C179.733 79.2045 179.913 78.7719 179.913 78.3209V61.314C179.913 60.8629 179.733 60.4303 179.415 60.1114C179.096 59.7925 178.663 59.6133 178.212 59.6133Z" fill="#8D7CFF" fill-opacity="0.56"/>
</g>
<rect id="Rectangle 243" x="98" y="74" width="59" height="23" fill="#BFB6FF"/>
<path id="Vector 2" d="M116 89C119.462 82.2084 128.808 72.7001 138.5 89" stroke="#F6F5FF" stroke-width="4"/>
<rect id="Rectangle 244" x="93.3652" y="22" width="4" height="9" fill="#BBB1FF"/>
<path id="Vector_9" d="M165.165 25.2L158.192 25.2L158.192 21.8L165.165 21.8C165.586 19.7361 166.759 17.9022 168.457 16.6538C170.154 15.4053 172.255 14.8313 174.351 15.0431C176.448 15.2548 178.391 16.2371 179.804 17.7997C181.218 19.3622 182 21.3936 182 23.5C182 25.6064 181.218 27.6378 179.804 29.2003C178.391 30.7629 176.448 31.7452 174.351 31.9569C172.255 32.1687 170.154 31.5947 168.457 30.3462C166.759 29.0978 165.586 27.2639 165.165 25.2V25.2Z" fill="#8D7CFF" fill-opacity="0.56"/>
<rect id="Rectangle 245" width="4" height="9" transform="matrix(-1 0 0 1 162 22)" fill="#BBB1FF"/>
</g>
</g>
</g>
</g>
<defs>
<clipPath id="clip0_2807_18387">
<rect width="200" height="140" fill="white" transform="translate(35 109)"/>
</clipPath>
<clipPath id="clip1_2807_18387">
<rect width="108.844" height="108.844" fill="white" transform="translate(73.3652)"/>
</clipPath>
    <clipPath id="clip2_2807_18387">
        <rect width="80" height="80" fill="white" transform="translate(237.277 173.961) rotate(37.1545)"/>
    </clipPath>
</defs>
</svg>
