<svg width="256" height="256" viewBox="0 0 256 256" fill="none" xmlns="http://www.w3.org/2000/svg">
<g id="Group 101">
<circle id="Ellipse 18" cx="128" cy="128" r="128" fill="white"/>
<g id="Group 87">
<g id="bbody" clip-path="url(#clip0_2667_22553)">
<g id="arms">
<rect id="Rectangle 273" x="169" y="133.516" width="16" height="48" rx="8" transform="rotate(-31.61 169 133.516)" fill="#BFB6FF"/>
<rect id="Rectangle 275" x="73.7061" y="125.621" width="16" height="48" rx="8" transform="rotate(31.6138 73.7061 125.621)" fill="#BFB6FF"/>
<path id="Vector" d="M33.3847 153.934C34.4243 153.216 35.6463 152.808 36.9087 152.757C38.1711 152.706 39.4221 153.014 40.5161 153.646C41.6101 154.278 42.5023 155.208 43.0889 156.327C43.6755 157.446 43.9324 158.708 43.8297 159.967L69.1575 174.59L66.2957 179.544L40.9685 164.923C39.9289 165.641 38.7069 166.049 37.4445 166.1C36.1821 166.151 34.9312 165.843 33.8371 165.211C32.7431 164.579 31.8509 163.649 31.2643 162.53C30.6778 161.411 30.4208 160.149 30.5235 158.89L35.746 161.906C36.0716 162.102 36.4328 162.231 36.8087 162.285C37.1846 162.34 37.5675 162.319 37.9352 162.224C38.3029 162.129 38.648 161.961 38.9503 161.731C39.2527 161.501 39.5062 161.214 39.6961 160.885C39.886 160.556 40.0085 160.192 40.0564 159.815C40.1043 159.439 40.0768 159.056 39.9753 158.69C39.8738 158.324 39.7004 157.982 39.4653 157.684C39.2302 157.386 38.938 157.137 38.6059 156.953L33.3824 153.933L33.3847 153.934Z" fill="#BFB6FF"/>
<path id="Vector_2" d="M198.801 181.629L209.795 170.635L209.795 170.634C210.063 170.366 210.214 170.002 210.214 169.623C210.214 169.244 210.063 168.88 209.795 168.611L209.723 168.539L211.583 166.679L210.444 165.541L222.183 153.802L223.004 154.623L226.962 149.165L224.797 147L219.339 150.958L220.16 151.779L208.421 163.518L207.283 162.379L205.423 164.239L205.351 164.167C205.082 163.898 204.718 163.748 204.339 163.748C203.96 163.748 203.596 163.898 203.327 164.167L192.333 175.161L192.333 175.161C191.182 176.317 190.734 177.999 191.157 179.575C191.581 181.15 192.812 182.381 194.387 182.805C195.963 183.228 197.645 182.78 198.801 181.629L198.801 181.629ZM194.356 179.606L194.356 179.606C194.036 179.284 193.855 178.849 193.855 178.395C193.855 177.941 194.036 177.505 194.356 177.184L202.486 169.055L204.908 171.476L196.778 179.606C196.457 179.926 196.021 180.106 195.567 180.106C195.113 180.106 194.678 179.926 194.356 179.606L194.356 179.606Z" fill="#B6ACFF"/>
</g>
<g id="core">
<rect id="Rectangle 274" x="77" y="114" width="101" height="89" fill="white"/>
<path id="Vector_3" d="M160.381 226.378H157.638V206.613H135.117V236.097V236.096C135.101 238.563 136.037 240.934 137.72 242.685C139.404 244.435 141.693 245.42 144.081 245.42H160.381C163.675 245.42 166.719 243.604 168.365 240.659C170.012 237.713 170.012 234.083 168.365 231.138C166.719 228.193 163.675 226.379 160.381 226.379L160.381 226.378Z" fill="#BFB6FF"/>
<path id="Vector_4" d="M97.6755 226.371H94.8991C91.6066 226.371 88.5625 228.185 86.9163 231.131C85.2701 234.076 85.2701 237.706 86.9163 240.651C88.5625 243.597 91.6066 245.412 94.8991 245.412H111.201C113.578 245.412 115.858 244.436 117.539 242.7C119.218 240.964 120.164 238.61 120.164 236.154V206.672H97.8345L97.6755 226.371Z" fill="#BFB6FF"/>
<path id="Vector_5" d="M161.123 116.943H142.782V109.433H158.731C161.872 109.433 164.885 108.14 167.1 105.84C169.314 103.539 170.551 100.422 170.534 97.1784V73.0322C170.508 69.8164 169.254 66.7411 167.044 64.477C164.833 62.2113 161.845 60.9409 158.731 60.9409H130.851V53.8922C133.712 52.8469 135.924 50.464 136.813 47.4671C137.701 44.4701 137.159 41.2169 135.356 38.698C133.55 36.1775 130.695 34.6914 127.662 34.6914C124.628 34.6914 121.773 36.1774 119.968 38.698C118.164 41.2168 117.623 44.4702 118.511 47.4671C119.399 50.4642 121.611 52.847 124.472 53.8922V60.9409H96.5609C93.438 60.9409 90.4451 62.2222 88.2377 64.502C86.0301 66.7818 84.7894 69.8742 84.7894 73.0976V97.1782C84.7894 100.402 86.0301 103.494 88.2377 105.774C90.4452 108.054 93.4381 109.333 96.5609 109.333H112.51V116.943H94.1687C91.0382 116.943 88.0363 118.227 85.8226 120.513C83.6089 122.799 82.3652 125.899 82.3652 129.132V187.771V187.769C82.3652 191.002 83.609 194.102 85.8226 196.389C88.0362 198.675 91.0382 199.959 94.1687 199.959H161.156H161.154C164.285 199.959 167.287 198.675 169.5 196.389C171.714 194.102 172.958 191.002 172.958 187.769V129.263C172.993 126.002 171.759 122.863 169.535 120.547C167.311 118.233 164.282 116.934 161.123 116.942L161.123 116.943ZM143.611 73.3931C146.631 73.3931 149.529 74.6323 151.664 76.8386C153.8 79.0434 155 82.0356 155 85.1545C155 88.2734 153.8 91.264 151.664 93.4705C149.529 95.6753 146.631 96.9144 143.611 96.9144C140.591 96.9144 137.695 95.6753 135.559 93.4705C133.424 91.2642 132.224 88.2735 132.224 85.1545C132.224 82.0357 133.424 79.0435 135.559 76.8386C137.695 74.6323 140.591 73.3931 143.611 73.3931ZM125.875 130.516H129.417C131.178 130.516 132.607 131.991 132.607 133.811C132.607 135.63 131.178 137.105 129.417 137.105H125.875C124.114 137.105 122.685 135.63 122.685 133.811C122.685 131.991 124.114 130.516 125.875 130.516ZM132.605 145.735H132.607C132.607 146.608 132.271 147.448 131.672 148.065C131.074 148.682 130.263 149.03 129.417 149.03H125.875C124.114 149.03 122.685 147.555 122.685 145.735C122.685 143.916 124.114 142.441 125.875 142.441H129.417C130.263 142.441 131.074 142.788 131.672 143.407C132.271 144.024 132.607 144.862 132.607 145.735H132.605ZM111.713 96.9129C108.692 96.9129 105.795 95.6738 103.66 93.469C101.524 91.2627 100.324 88.272 100.324 85.1531C100.324 82.0342 101.524 79.042 103.66 76.8371C105.795 74.6308 108.692 73.3917 111.713 73.3917C114.733 73.3917 117.628 74.6308 119.765 76.8371C121.9 79.0419 123.1 82.0341 123.1 85.1531C123.1 88.272 121.9 91.2625 119.765 93.469C117.629 95.6738 114.733 96.9129 111.713 96.9129ZM149.577 180.06C149.577 181.807 148.904 183.484 147.708 184.72C146.511 185.954 144.888 186.65 143.197 186.65H112.127C110.436 186.65 108.812 185.954 107.616 184.72C106.42 183.484 105.747 181.807 105.747 180.06V164.743C105.747 162.996 106.42 161.319 107.616 160.083C108.812 158.849 110.436 158.153 112.127 158.153H143.197C144.888 158.153 146.512 158.849 147.708 160.083C148.904 161.319 149.577 162.996 149.577 164.743V180.06Z" fill="#BFB6FF"/>
<path id="Vector_6" d="M111.953 166.016H143.054V181.333H111.953V166.016Z" fill="#BFB6FF"/>
<rect id="Rectangle 188" x="102.23" y="155.57" width="49.8938" height="33.2625" fill="#BFB6FF"/>
<text id="TPA" fill="white" xml:space="preserve" style="white-space: pre" font-family="DM Sans" font-size="12" font-weight="bold" letter-spacing="0em"><tspan x="115.894" y="172.127">TPA</tspan></text>
</g>
</g>
<g id="head">
<g id="64px_robot 1" clip-path="url(#clip1_2667_22553)">
<g id="Group">
<g id="ears">
<path id="Vector_7" d="M102.519 26.4609V33.1364H105.775V26.4609C107.752 26.0575 109.508 24.9344 110.704 23.3095C111.899 21.6846 112.449 19.6736 112.246 17.6664C112.044 15.6591 111.103 13.7987 109.606 12.4458C108.11 11.0928 106.164 10.3438 104.147 10.3438C102.129 10.3437 100.184 11.0928 98.6872 12.4458C97.1907 13.7987 96.2499 15.6591 96.0471 17.6664C95.8443 19.6736 96.3941 21.6846 97.5898 23.3095C98.7854 24.9344 100.542 26.0575 102.519 26.4609Z" fill="#BFB6FF"/>
<path id="Vector_8" d="M148.106 26.4609V33.1364H151.363V26.4609C153.339 26.0575 155.096 24.9344 156.292 23.3095C157.487 21.6846 158.037 19.6736 157.834 17.6664C157.631 15.6591 156.691 13.7987 155.194 12.4458C153.698 11.0928 151.752 10.3437 149.735 10.3438C147.717 10.3438 145.772 11.0928 144.275 12.4458C142.779 13.7987 141.838 15.6591 141.635 17.6664C141.432 19.6736 141.982 21.6846 143.178 23.3095C144.373 24.9344 146.13 26.0575 148.106 26.4609Z" fill="#BFB6FF"/>
</g>
<path id="Vector_9" d="M161.132 36.3945H92.7492C90.5909 36.3971 88.5218 37.2556 86.9956 38.7818C85.4695 40.3079 84.611 42.3771 84.6084 44.5354V103.149C84.611 105.308 85.4695 107.377 86.9956 108.903C88.5218 110.429 90.5909 111.288 92.7492 111.29H161.132C163.291 111.288 165.36 110.429 166.886 108.903C168.412 107.377 169.271 105.308 169.273 103.149V44.5354C169.271 42.3771 168.412 40.3079 166.886 38.7818C165.36 37.2556 163.291 36.3971 161.132 36.3945ZM107.403 52.6762C109.013 52.6762 110.587 53.1537 111.926 54.0482C113.264 54.9427 114.308 56.2141 114.924 57.7017C115.54 59.1892 115.701 60.8261 115.387 62.4052C115.073 63.9844 114.298 65.435 113.159 66.5735C112.021 67.712 110.57 68.4873 108.991 68.8015C107.412 69.1156 105.775 68.9544 104.287 68.3382C102.8 67.722 101.528 66.6786 100.634 65.3399C99.7394 64.0011 99.2619 62.4271 99.2619 60.817C99.2619 58.658 100.12 56.5873 101.646 55.0606C103.173 53.5339 105.244 52.6762 107.403 52.6762ZM154.62 96.6367C154.62 97.0685 154.448 97.4827 154.143 97.788C153.837 98.0934 153.423 98.2649 152.991 98.2649H100.89C100.458 98.2649 100.044 98.0934 99.7388 97.788C99.4334 97.4827 99.2619 97.0685 99.2619 96.6367V80.3551C99.2619 79.9232 99.4334 79.5091 99.7388 79.2038C100.044 78.8984 100.458 78.7269 100.89 78.7269H152.991C153.423 78.7269 153.837 78.8984 154.143 79.2038C154.448 79.5091 154.62 79.9232 154.62 80.3551V96.6367ZM146.479 68.9579C144.869 68.9579 143.295 68.4804 141.956 67.5859C140.617 66.6914 139.574 65.42 138.958 63.9324C138.341 62.4449 138.18 60.808 138.494 59.2288C138.808 57.6497 139.584 56.1991 140.722 55.0606C141.861 53.9221 143.311 53.1467 144.891 52.8326C146.47 52.5185 148.107 52.6797 149.594 53.2959C151.082 53.9121 152.353 54.9555 153.248 56.2942C154.142 57.633 154.62 59.2069 154.62 60.817C154.62 62.9761 153.762 65.0468 152.235 66.5735C150.708 68.1002 148.638 68.9579 146.479 68.9579Z" fill="#BFB6FF"/>
<path id="Vector_10" d="M76.4678 65.6985V81.9801C76.4678 82.412 76.6393 82.8261 76.9447 83.1314C77.25 83.4368 77.6641 83.6083 78.0959 83.6083H81.3523V64.0703H78.0959C77.6641 64.0703 77.25 64.2418 76.9447 64.5472C76.6393 64.8525 76.4678 65.2667 76.4678 65.6985Z" fill="#BFB6FF"/>
<path id="Vector_11" d="M175.787 64.0703H172.53V83.6083H175.787C176.218 83.6083 176.633 83.4368 176.938 83.1314C177.243 82.8261 177.415 82.412 177.415 81.9801V65.6985C177.415 65.2667 177.243 64.8525 176.938 64.5472C176.633 64.2418 176.218 64.0703 175.787 64.0703Z" fill="#BFB6FF"/>
</g>
</g>
<rect id="Rectangle 243" x="99" y="78" width="59" height="23" fill="#BFB6FF"/>
<path id="Vector 2" d="M139 84C135.538 90.7916 126.192 100.3 116.5 84" stroke="#F6F5FF" stroke-width="4"/>
</g>
</g>
<g id="screws">
<path id="Vector_12" d="M205.028 194.415C205.067 194.284 204.971 194.131 204.815 194.073C204.659 194.015 204.501 194.076 204.463 194.207L204.396 194.436L203.85 194.145L205.12 191.766C203.665 190.988 201.705 191.819 200.742 193.62C199.78 195.422 200.18 197.513 201.635 198.29L202.906 195.912L203.821 196.4L203.73 196.71C203.691 196.841 203.787 196.994 203.943 197.052C204.099 197.11 204.256 197.049 204.295 196.918L204.362 196.689L205.155 197.112L205.065 197.422C205.026 197.554 205.121 197.707 205.278 197.764C205.434 197.822 205.591 197.762 205.63 197.63L205.697 197.401L206.49 197.825L206.399 198.135C206.361 198.266 206.456 198.419 206.612 198.477C206.769 198.535 206.926 198.474 206.965 198.343L207.032 198.114L207.825 198.537L207.734 198.847C207.695 198.978 207.791 199.132 207.947 199.189C208.103 199.247 208.26 199.186 208.299 199.055L208.366 198.826L209.159 199.25L209.068 199.559C209.03 199.691 209.125 199.844 209.281 199.901C209.438 199.959 209.595 199.899 209.634 199.767L209.701 199.538L210.494 199.962L210.403 200.272C210.364 200.403 210.46 200.556 210.616 200.614C210.772 200.672 210.93 200.611 210.968 200.48L211.036 200.251L211.828 200.674L211.738 200.984C211.699 201.116 211.795 201.269 211.951 201.326C212.107 201.384 212.265 201.324 212.303 201.192L212.37 200.963L213.163 201.387L213.072 201.696C213.033 201.828 213.129 201.981 213.285 202.039C213.442 202.096 213.599 202.036 213.637 201.904L213.704 201.675L214.498 202.099L214.407 202.408C214.368 202.54 214.464 202.693 214.62 202.751C214.776 202.808 214.933 202.748 214.972 202.616L215.039 202.388L215.832 202.811L215.741 203.121C215.703 203.253 215.798 203.405 215.954 203.463C216.11 203.521 216.268 203.46 216.307 203.329L216.374 203.1L217.167 203.524L217.076 203.833C217.038 203.965 217.133 204.118 217.289 204.176C217.445 204.233 217.603 204.173 217.642 204.041L217.709 203.813L218.502 204.236L218.41 204.545C218.372 204.677 218.467 204.83 218.624 204.888C218.78 204.946 218.937 204.885 218.975 204.753L219.043 204.524L219.589 204.816L222.472 205.273L222.469 205.271L222.49 205.236L222.513 205.196L220.53 203.053L219.615 202.565L219.706 202.255C219.745 202.124 219.649 201.97 219.493 201.913C219.337 201.855 219.18 201.916 219.141 202.047L219.074 202.276L218.281 201.852L218.372 201.543C218.41 201.411 218.315 201.258 218.158 201.2C218.003 201.143 217.845 201.203 217.807 201.335L217.74 201.564L216.947 201.14L217.037 200.831C217.076 200.699 216.981 200.546 216.824 200.488C216.668 200.431 216.511 200.491 216.472 200.623L216.405 200.851L215.612 200.428L215.702 200.118C215.741 199.986 215.646 199.834 215.489 199.776C215.333 199.718 215.176 199.778 215.137 199.91L215.07 200.139L214.277 199.715L214.368 199.406C214.407 199.274 214.311 199.121 214.155 199.063C213.999 199.005 213.842 199.066 213.803 199.198L213.736 199.427L212.943 199.003L213.034 198.693C213.072 198.562 212.977 198.409 212.82 198.351C212.665 198.293 212.507 198.353 212.468 198.485L212.401 198.714L211.608 198.29L211.699 197.981C211.737 197.849 211.642 197.696 211.486 197.638C211.33 197.581 211.172 197.641 211.133 197.773L211.066 198.001L210.274 197.578L210.364 197.268C210.403 197.137 210.307 196.984 210.151 196.926C209.995 196.868 209.837 196.929 209.799 197.06L209.732 197.289L208.939 196.866L209.029 196.556C209.068 196.424 208.973 196.271 208.816 196.214C208.66 196.156 208.503 196.216 208.464 196.348L208.397 196.577L207.604 196.153L207.695 195.844C207.734 195.712 207.638 195.559 207.482 195.501C207.326 195.444 207.168 195.504 207.13 195.636L207.063 195.865L206.27 195.441L206.36 195.131C206.399 195 206.304 194.847 206.147 194.789C205.992 194.732 205.834 194.792 205.795 194.924L205.728 195.152L204.935 194.729L205.028 194.415Z" fill="#B6ACFF"/>
<path id="Vector_13" d="M210.774 191.191C210.897 191.129 210.943 190.955 210.879 190.802C210.814 190.648 210.662 190.575 210.54 190.636L210.327 190.744L210.167 190.146L212.772 189.448C212.345 187.854 210.399 186.991 208.426 187.519C206.453 188.048 205.2 189.769 205.627 191.363L208.232 190.665L208.5 191.666L208.212 191.812C208.09 191.873 208.043 192.047 208.108 192.201C208.172 192.354 208.324 192.428 208.447 192.366L208.659 192.259L208.892 193.127L208.604 193.273C208.482 193.335 208.435 193.509 208.5 193.662C208.564 193.816 208.716 193.889 208.839 193.828L209.051 193.72L209.284 194.589L208.996 194.734C208.873 194.796 208.827 194.97 208.892 195.124C208.956 195.277 209.108 195.351 209.231 195.289L209.443 195.182L209.676 196.05L209.388 196.195C209.265 196.257 209.219 196.431 209.284 196.585C209.348 196.738 209.5 196.811 209.622 196.75L209.835 196.642L210.068 197.511L209.78 197.656C209.657 197.718 209.611 197.892 209.676 198.046C209.74 198.199 209.892 198.273 210.014 198.211L210.227 198.104L210.46 198.972L210.172 199.118C210.049 199.179 210.003 199.353 210.068 199.507C210.132 199.66 210.284 199.734 210.406 199.672L210.619 199.565L210.852 200.433L210.564 200.579C210.441 200.641 210.395 200.815 210.46 200.968C210.524 201.122 210.676 201.195 210.798 201.134L211.011 201.026L211.244 201.895L210.956 202.04C210.833 202.101 210.787 202.276 210.851 202.429C210.916 202.583 211.068 202.656 211.19 202.594L211.403 202.487L211.636 203.356L211.348 203.501C211.225 203.562 211.179 203.737 211.243 203.89C211.308 204.043 211.46 204.117 211.582 204.055L211.795 203.948L212.028 204.816L211.74 204.962C211.617 205.024 211.571 205.198 211.635 205.351C211.7 205.505 211.852 205.578 211.974 205.517L212.187 205.409L212.42 206.278L212.132 206.423C212.009 206.485 211.963 206.659 212.027 206.813C212.092 206.966 212.244 207.04 212.366 206.978L212.579 206.871L212.812 207.739L212.524 207.884C212.401 207.946 212.355 208.12 212.419 208.274C212.484 208.427 212.635 208.5 212.758 208.439L212.971 208.331L213.131 208.93L214.768 211.347L214.767 211.343L214.808 211.334L214.852 211.323L215.061 208.412L214.793 207.41L215.081 207.265C215.204 207.203 215.25 207.029 215.185 206.875C215.121 206.722 214.969 206.649 214.847 206.711L214.634 206.818L214.401 205.949L214.689 205.804C214.812 205.742 214.858 205.568 214.794 205.414C214.729 205.262 214.577 205.187 214.455 205.249L214.242 205.357L214.009 204.488L214.297 204.343C214.42 204.281 214.466 204.107 214.402 203.954C214.337 203.8 214.185 203.726 214.063 203.788L213.85 203.895L213.617 203.027L213.905 202.881C214.028 202.82 214.074 202.646 214.01 202.492C213.945 202.339 213.793 202.265 213.671 202.327L213.458 202.434L213.226 201.566L213.514 201.421C213.636 201.359 213.683 201.184 213.618 201.031C213.553 200.877 213.402 200.804 213.279 200.866L213.067 200.973L212.834 200.104L213.122 199.959C213.244 199.898 213.291 199.723 213.226 199.57C213.162 199.417 213.01 199.343 212.887 199.404L212.674 199.512L212.442 198.643L212.73 198.498C212.852 198.436 212.899 198.262 212.834 198.109C212.77 197.955 212.618 197.881 212.495 197.943L212.282 198.05L212.05 197.182L212.338 197.037C212.46 196.975 212.507 196.801 212.442 196.647C212.378 196.494 212.226 196.42 212.103 196.482L211.89 196.589L211.658 195.721L211.946 195.575C212.068 195.514 212.115 195.34 212.05 195.186C211.986 195.033 211.834 194.959 211.711 195.021L211.499 195.128L211.266 194.259L211.554 194.115C211.677 194.053 211.723 193.878 211.658 193.725C211.594 193.572 211.442 193.498 211.32 193.56L211.107 193.667L210.874 192.799L211.162 192.653C211.285 192.592 211.331 192.417 211.266 192.264C211.202 192.111 211.05 192.037 210.927 192.099L210.715 192.206L210.482 191.338L210.774 191.191Z" fill="#B6ACFF"/>
</g>
</g>
<defs>
<clipPath id="clip0_2667_22553">
<rect width="256" height="144" fill="white" transform="translate(0 101)"/>
</clipPath>
<clipPath id="clip1_2667_22553">
<rect width="104.203" height="104.203" fill="white" transform="translate(75.4111 7)"/>
</clipPath>
</defs>
</svg>
