<svg width="256" height="256" viewBox="0 0 256 256" fill="none" xmlns="http://www.w3.org/2000/svg">
<g id="Group 101">
<circle id="Ellipse 18" cx="128" cy="128" r="128" fill="white"/>
<g id="Group 87">
    <g class="arm-tool-left">
        <rect id="arm-left" class="arm-left" x="91.1201" y="143.414" width="16" height="48" rx="8" transform="rotate(137.164 91.1201 143.414)" fill="#BFB6FF"/>
        <path id="tool-left" class="tool-left" d="M69.5429 93.451C70.0981 94.5859 70.3196 95.8551 70.1819 97.111C70.0442 98.3669 69.5528 99.5579 68.7649 100.546C67.9771 101.533 66.925 102.277 65.7311 102.69C64.5372 103.104 63.2505 103.17 62.0206 102.88L43.7875 125.747L39.3153 122.179L57.5465 99.3128C56.9913 98.1779 56.7697 96.9087 56.9074 95.6528C57.0452 94.3969 57.5365 93.2059 58.3244 92.2182C59.1123 91.2305 60.1644 90.4868 61.3583 90.0735C62.5522 89.6602 63.8389 89.5942 65.0688 89.8833L61.3076 94.5981C61.0657 94.8909 60.8845 95.2289 60.7747 95.5925C60.6648 95.956 60.6284 96.3379 60.6677 96.7156C60.707 97.0934 60.8211 97.4596 61.0034 97.7928C61.1856 98.126 61.4325 98.4195 61.7294 98.6563C62.0264 98.8931 62.3675 99.0684 62.7329 99.1719C63.0983 99.2754 63.4807 99.3052 63.8577 99.2593C64.2348 99.2135 64.5989 99.0931 64.9289 98.905C65.2588 98.717 65.5481 98.4651 65.7796 98.1641L69.5446 93.4489L69.5429 93.451Z" fill="#BFB6FF"/>
    </g>
    <g class="arm-tool-right">
        <rect id="arm-right" class="arm-right" x="177.939" y="151.801" width="16" height="48" rx="8" transform="rotate(-137.16 177.939 151.801)" fill="#BFB6FF"/>
        <path id="tool-right" class="tool-right" d="M215.332 114.205L206.686 101.282L206.685 101.282C206.474 100.967 206.147 100.748 205.775 100.675C205.402 100.601 205.016 100.678 204.701 100.889L204.616 100.946L203.153 98.7599L201.815 99.6552L192.583 85.8578L193.547 85.2123L188.963 80.2686L186.419 81.971L189.24 88.0943L190.205 87.4488L199.437 101.246L198.099 102.142L199.562 104.328L199.477 104.385C199.161 104.596 198.943 104.923 198.869 105.295C198.795 105.668 198.872 106.054 199.083 106.369L207.73 119.291L207.73 119.291C208.64 120.645 210.203 121.412 211.831 121.303C213.459 121.194 214.905 120.226 215.627 118.763C216.349 117.299 216.236 115.563 215.332 114.204L215.332 114.205ZM212.483 118.171L212.483 118.171C212.106 118.423 211.644 118.515 211.198 118.427C210.753 118.339 210.361 118.077 210.108 117.7L203.714 108.145L206.561 106.24L212.954 115.795C213.206 116.173 213.298 116.635 213.21 117.08C213.122 117.526 212.86 117.918 212.483 118.171L212.483 118.171Z" fill="#B6ACFF"/>
    </g>
<g id="Frame 253" clip-path="url(#clip0_2667_23002)">
<g id="Group">
    <rect id="Rectangle 274" x="77" y="114" width="101" height="89" fill="white"/>
    <g id="Group_2">
    <path id="Vector" d="M160.381 226.378H157.638V206.613H135.117V236.097V236.096C135.101 238.563 136.037 240.934 137.72 242.685C139.404 244.435 141.693 245.42 144.081 245.42H160.381C163.675 245.42 166.719 243.604 168.365 240.659C170.012 237.713 170.012 234.083 168.365 231.138C166.719 228.193 163.675 226.379 160.381 226.379L160.381 226.378Z" fill="#BFB6FF"/>
<path id="Vector_2" d="M97.6755 226.371H94.8991C91.6066 226.371 88.5625 228.185 86.9163 231.131C85.2701 234.076 85.2701 237.706 86.9163 240.651C88.5625 243.597 91.6066 245.412 94.8991 245.412H111.201C113.578 245.412 115.858 244.436 117.539 242.7C119.218 240.964 120.164 238.61 120.164 236.154V206.672H97.8345L97.6755 226.371Z" fill="#BFB6FF"/>
<path id="Vector_3" d="M161.123 116.943H142.782V109.433H158.731C161.872 109.433 164.885 108.14 167.1 105.84C169.314 103.539 170.551 100.422 170.534 97.1784V73.0322C170.508 69.8164 169.254 66.7411 167.044 64.477C164.833 62.2113 161.845 60.9409 158.731 60.9409H130.851V53.8922C133.712 52.8469 135.924 50.464 136.813 47.4671C137.701 44.4701 137.159 41.2169 135.356 38.698C133.55 36.1775 130.695 34.6914 127.662 34.6914C124.628 34.6914 121.773 36.1774 119.968 38.698C118.164 41.2168 117.623 44.4702 118.511 47.4671C119.399 50.4642 121.611 52.847 124.472 53.8922V60.9409H96.5609C93.438 60.9409 90.4451 62.2222 88.2377 64.502C86.0301 66.7818 84.7894 69.8742 84.7894 73.0976V97.1782C84.7894 100.402 86.0301 103.494 88.2377 105.774C90.4452 108.054 93.4381 109.333 96.5609 109.333H112.51V116.943H94.1687C91.0382 116.943 88.0363 118.227 85.8226 120.513C83.6089 122.799 82.3652 125.899 82.3652 129.132V187.771V187.769C82.3652 191.002 83.609 194.102 85.8226 196.389C88.0362 198.675 91.0382 199.959 94.1687 199.959H161.156H161.154C164.285 199.959 167.287 198.675 169.5 196.389C171.714 194.102 172.958 191.002 172.958 187.769V129.263C172.993 126.002 171.759 122.863 169.535 120.547C167.311 118.233 164.282 116.934 161.123 116.942L161.123 116.943ZM143.611 73.3931C146.631 73.3931 149.529 74.6323 151.664 76.8386C153.8 79.0434 155 82.0356 155 85.1545C155 88.2734 153.8 91.264 151.664 93.4705C149.529 95.6753 146.631 96.9144 143.611 96.9144C140.591 96.9144 137.695 95.6753 135.559 93.4705C133.424 91.2642 132.224 88.2735 132.224 85.1545C132.224 82.0357 133.424 79.0435 135.559 76.8386C137.695 74.6323 140.591 73.3931 143.611 73.3931ZM125.875 130.516H129.417C131.178 130.516 132.607 131.991 132.607 133.811C132.607 135.63 131.178 137.105 129.417 137.105H125.875C124.114 137.105 122.685 135.63 122.685 133.811C122.685 131.991 124.114 130.516 125.875 130.516ZM132.605 145.735H132.607C132.607 146.608 132.271 147.448 131.672 148.065C131.074 148.682 130.263 149.03 129.417 149.03H125.875C124.114 149.03 122.685 147.555 122.685 145.735C122.685 143.916 124.114 142.441 125.875 142.441H129.417C130.263 142.441 131.074 142.788 131.672 143.407C132.271 144.024 132.607 144.862 132.607 145.735H132.605ZM111.713 96.9129C108.692 96.9129 105.795 95.6738 103.66 93.469C101.524 91.2627 100.324 88.272 100.324 85.1531C100.324 82.0342 101.524 79.042 103.66 76.8371C105.795 74.6308 108.692 73.3917 111.713 73.3917C114.733 73.3917 117.628 74.6308 119.765 76.8371C121.9 79.0419 123.1 82.0341 123.1 85.1531C123.1 88.272 121.9 91.2625 119.765 93.469C117.629 95.6738 114.733 96.9129 111.713 96.9129ZM149.577 180.06C149.577 181.807 148.904 183.484 147.708 184.72C146.511 185.954 144.888 186.65 143.197 186.65H112.127C110.436 186.65 108.812 185.954 107.616 184.72C106.42 183.484 105.747 181.807 105.747 180.06V164.743C105.747 162.996 106.42 161.319 107.616 160.083C108.812 158.849 110.436 158.153 112.127 158.153H143.197C144.888 158.153 146.512 158.849 147.708 160.083C148.904 161.319 149.577 162.996 149.577 164.743V180.06Z" fill="#BFB6FF"/>
<path id="Vector_4" d="M111.953 166.016H143.054V181.333H111.953V166.016Z" fill="#BFB6FF"/>
</g>
</g>
<rect id="Rectangle 188" x="102.23" y="155.57" width="49.8938" height="33.2625" fill="#BFB6FF"/>
<text id="TPA" fill="white" xml:space="preserve" style="white-space: pre" font-family="DM Sans" font-size="12" font-weight="bold" letter-spacing="0em"><tspan x="115.894" y="172.127">TPA</tspan></text>
</g>
<g id="Group 85">
<g id="64px_robot 1">
<g id="Group_3">
<path id="ear-left" class="ear-left" d="M104.822 26.6856L107.831 32.6444L110.738 31.1765L107.728 25.2177C109.311 23.9665 110.373 22.1723 110.708 20.1829C111.042 18.1934 110.627 16.1505 109.541 14.4502C108.455 12.7499 106.777 11.5133 104.831 10.9802C102.885 10.447 100.811 10.6554 99.01 11.5648C97.2092 12.4741 95.8102 14.0198 95.0842 15.9021C94.3582 17.7843 94.357 19.8691 95.0808 21.7523C95.8045 23.6354 97.2018 25.1827 99.0015 26.0942C100.801 27.0056 102.875 27.2164 104.822 26.6856Z" fill="#BFB6FF"/>
<path id="ear-right" class="ear-right" d="M146.154 25.2172L143.145 31.1762L146.052 32.6439L149.061 26.6849C151.007 27.2156 153.081 27.0048 154.881 26.0932C156.681 25.1816 158.078 23.6343 158.801 21.7511C159.525 19.8679 159.524 17.7832 158.798 15.9009C158.072 14.0187 156.672 12.4731 154.872 11.5638C153.071 10.6545 150.996 10.4463 149.051 10.9795C147.105 11.5127 145.427 12.7494 144.341 14.4498C143.255 16.1501 142.839 18.1931 143.174 20.1825C143.509 22.1719 144.571 23.9661 146.154 25.2172Z" fill="#BFB6FF"/>
<path id="Vector_5" d="M161.132 36.3906H92.7492C90.5909 36.3932 88.5218 37.2517 86.9956 38.7779C85.4695 40.304 84.611 42.3732 84.6084 44.5315V103.145C84.611 105.304 85.4695 107.373 86.9956 108.899C88.5218 110.425 90.5909 111.284 92.7492 111.286H161.132C163.291 111.284 165.36 110.425 166.886 108.899C168.412 107.373 169.271 105.304 169.273 103.145V44.5315C169.271 42.3732 168.412 40.304 166.886 38.7779C165.36 37.2517 163.291 36.3932 161.132 36.3906ZM107.403 52.6723C109.013 52.6723 110.587 53.1498 111.926 54.0443C113.264 54.9388 114.308 56.2102 114.924 57.6978C115.54 59.1853 115.701 60.8222 115.387 62.4013C115.073 63.9805 114.298 65.4311 113.159 66.5696C112.021 67.7081 110.57 68.4834 108.991 68.7976C107.412 69.1117 105.775 68.9505 104.287 68.3343C102.8 67.7181 101.528 66.6747 100.634 65.3359C99.7394 63.9972 99.2619 62.4232 99.2619 60.8131C99.2619 58.6541 100.12 56.5834 101.646 55.0567C103.173 53.53 105.244 52.6723 107.403 52.6723ZM154.62 96.6328C154.62 97.0646 154.448 97.4788 154.143 97.7841C153.837 98.0895 153.423 98.261 152.991 98.261H100.89C100.458 98.261 100.044 98.0895 99.7388 97.7841C99.4334 97.4788 99.2619 97.0646 99.2619 96.6328V80.3511C99.2619 79.9193 99.4334 79.5052 99.7388 79.1999C100.044 78.8945 100.458 78.723 100.89 78.723H152.991C153.423 78.723 153.837 78.8945 154.143 79.1999C154.448 79.5052 154.62 79.9193 154.62 80.3511V96.6328ZM146.479 68.954C144.869 68.954 143.295 68.4765 141.956 67.582C140.617 66.6875 139.574 65.416 138.958 63.9285C138.341 62.441 138.18 60.8041 138.494 59.2249C138.808 57.6458 139.584 56.1952 140.722 55.0567C141.861 53.9182 143.311 53.1428 144.891 52.8287C146.47 52.5146 148.107 52.6758 149.594 53.292C151.082 53.9081 152.353 54.9516 153.248 56.2903C154.142 57.6291 154.62 59.203 154.62 60.8131C154.62 62.9722 153.762 65.0429 152.235 66.5696C150.708 68.0963 148.638 68.954 146.479 68.954Z" fill="#BFB6FF"/>
<path id="Vector_6" d="M76.4678 65.6985V81.9801C76.4678 82.412 76.6393 82.8261 76.9447 83.1314C77.25 83.4368 77.6641 83.6083 78.0959 83.6083H81.3523V64.0703H78.0959C77.6641 64.0703 77.25 64.2418 76.9447 64.5472C76.6393 64.8525 76.4678 65.2667 76.4678 65.6985Z" fill="#BFB6FF"/>
<path id="Vector_7" d="M175.787 64.0703H172.53V83.6083H175.787C176.218 83.6083 176.633 83.4368 176.938 83.1314C177.243 82.8261 177.415 82.412 177.415 81.9801V65.6985C177.415 65.2667 177.243 64.8525 176.938 64.5472C176.633 64.2418 176.218 64.0703 175.787 64.0703Z" fill="#BFB6FF"/>
</g>
</g>
<rect id="Rectangle 243" x="99" y="78" width="59" height="23" fill="#BFB6FF"/>
<path id="Vector 2" d="M139 84C135.538 90.7916 126.192 100.3 116.5 84" stroke="#F6F5FF" stroke-width="4"/>
</g>

</g>
<g id="screws" class="screws">
<path id="screw2" class="screw2" d="M203.7 189.008C203.69 188.871 203.548 188.76 203.382 188.76C203.215 188.76 203.088 188.871 203.097 189.008L203.114 189.246L202.501 189.162L202.869 186.49C201.235 186.265 199.683 187.723 199.404 189.746C199.125 191.77 200.225 193.593 201.859 193.818L202.227 191.146L203.255 191.288L203.277 191.61C203.286 191.747 203.429 191.857 203.595 191.857C203.762 191.857 203.888 191.746 203.879 191.609L203.863 191.371L204.753 191.494L204.776 191.816C204.785 191.953 204.927 192.063 205.094 192.063C205.26 192.063 205.387 191.952 205.378 191.815L205.362 191.577L206.252 191.7L206.274 192.022C206.284 192.159 206.426 192.269 206.593 192.269C206.759 192.269 206.886 192.158 206.877 192.021L206.86 191.784L207.751 191.906L207.773 192.228C207.782 192.365 207.925 192.475 208.091 192.475C208.258 192.476 208.384 192.364 208.375 192.227L208.359 191.99L209.249 192.112L209.272 192.434C209.281 192.571 209.423 192.681 209.59 192.682C209.756 192.682 209.883 192.57 209.874 192.433L209.858 192.196L210.748 192.318L210.771 192.64C210.78 192.777 210.922 192.888 211.089 192.888C211.255 192.888 211.382 192.777 211.373 192.64L211.357 192.402L212.247 192.524L212.27 192.846C212.279 192.983 212.421 193.094 212.588 193.094C212.754 193.094 212.881 192.983 212.872 192.846L212.856 192.608L213.746 192.731L213.768 193.052C213.777 193.189 213.92 193.3 214.086 193.3C214.253 193.3 214.379 193.189 214.37 193.052L214.353 192.814L215.245 192.937L215.266 193.258C215.276 193.395 215.419 193.506 215.585 193.506C215.751 193.506 215.878 193.395 215.869 193.258L215.852 193.02L216.743 193.143L216.765 193.464C216.774 193.601 216.917 193.712 217.083 193.712C217.25 193.712 217.377 193.601 217.367 193.464L217.351 193.226L218.242 193.349L218.264 193.671C218.273 193.808 218.416 193.918 218.582 193.918C218.749 193.918 218.876 193.807 218.866 193.67L218.85 193.432L219.741 193.555L219.762 193.877C219.772 194.014 219.914 194.124 220.081 194.124C220.247 194.124 220.374 194.013 220.364 193.876L220.348 193.638L220.962 193.723L223.825 193.153L223.821 193.152L223.829 193.111L223.836 193.066L221.234 191.743L220.207 191.601L220.185 191.279C220.176 191.143 220.033 191.032 219.866 191.032C219.7 191.032 219.573 191.143 219.583 191.28L219.599 191.518L218.708 191.395L218.686 191.073C218.677 190.936 218.534 190.826 218.368 190.826C218.202 190.826 218.075 190.937 218.084 191.074L218.1 191.312L217.21 191.189L217.187 190.867C217.178 190.73 217.036 190.62 216.869 190.62C216.703 190.62 216.576 190.731 216.585 190.868L216.601 191.106L215.711 190.983L215.688 190.661C215.679 190.524 215.537 190.414 215.37 190.414C215.204 190.414 215.077 190.525 215.086 190.662L215.102 190.9L214.212 190.777L214.19 190.455C214.181 190.318 214.038 190.207 213.872 190.207C213.705 190.207 213.579 190.318 213.588 190.455L213.605 190.693L212.713 190.57L212.692 190.249C212.682 190.112 212.54 190.001 212.373 190.001C212.207 190.001 212.08 190.112 212.089 190.249L212.105 190.487L211.215 190.364L211.192 190.043C211.183 189.906 211.041 189.795 210.874 189.795C210.708 189.795 210.581 189.906 210.59 190.043L210.606 190.281L209.716 190.158L209.694 189.836C209.684 189.699 209.542 189.589 209.376 189.589C209.209 189.589 209.082 189.7 209.091 189.837L209.108 190.075L208.217 189.952L208.195 189.63C208.186 189.493 208.043 189.383 207.877 189.383C207.71 189.383 207.583 189.494 207.593 189.631L207.609 189.869L206.718 189.746L206.697 189.424C206.687 189.287 206.544 189.177 206.378 189.177C206.212 189.177 206.085 189.288 206.094 189.425L206.111 189.663L205.22 189.54L205.198 189.218C205.189 189.081 205.046 188.971 204.879 188.971C204.713 188.971 204.586 189.082 204.596 189.219L204.612 189.457L203.721 189.334L203.7 189.008Z" fill="#B6ACFF"/>
<path id="screw1" class="screw1" d="M219.851 200.298C219.886 200.431 220.047 200.512 220.21 200.48C220.373 200.449 220.477 200.315 220.442 200.183L220.381 199.952L220.998 199.919L221.145 202.611C222.793 202.521 224.038 200.795 223.927 198.756C223.816 196.716 222.389 195.135 220.742 195.225L220.889 197.918L219.854 197.975L219.771 197.663C219.736 197.53 219.575 197.449 219.411 197.481C219.248 197.512 219.145 197.645 219.18 197.778L219.241 198.009L218.343 198.057L218.26 197.746C218.225 197.613 218.064 197.532 217.901 197.563C217.737 197.595 217.634 197.728 217.669 197.861L217.73 198.091L216.833 198.14L216.749 197.829C216.714 197.696 216.553 197.615 216.39 197.646C216.226 197.678 216.123 197.811 216.158 197.944L216.22 198.174L215.322 198.223L215.239 197.912C215.204 197.779 215.043 197.698 214.879 197.729C214.716 197.761 214.613 197.894 214.648 198.027L214.71 198.257L213.812 198.306L213.729 197.994C213.693 197.862 213.533 197.78 213.369 197.812C213.206 197.844 213.102 197.977 213.137 198.11L213.199 198.34L212.301 198.389L212.218 198.077C212.183 197.945 212.022 197.863 211.858 197.895C211.695 197.927 211.592 198.06 211.627 198.192L211.688 198.423L210.79 198.472L210.707 198.16C210.672 198.027 210.511 197.946 210.348 197.978C210.184 198.009 210.081 198.143 210.116 198.275L210.177 198.506L209.28 198.555L209.197 198.243C209.162 198.11 209.001 198.029 208.837 198.061C208.674 198.092 208.571 198.225 208.606 198.358L208.667 198.589L207.769 198.638L207.686 198.326C207.651 198.193 207.49 198.112 207.327 198.144C207.164 198.175 207.06 198.308 207.096 198.441L207.157 198.671L206.259 198.72L206.176 198.409C206.141 198.276 205.98 198.195 205.817 198.226C205.653 198.258 205.55 198.391 205.585 198.524L205.646 198.754L204.748 198.803L204.665 198.492C204.63 198.359 204.469 198.278 204.306 198.309C204.142 198.341 204.039 198.474 204.074 198.607L204.135 198.837L203.238 198.886L203.155 198.574C203.12 198.442 202.959 198.36 202.795 198.392C202.632 198.424 202.529 198.557 202.564 198.69L202.625 198.92L202.007 198.954L199.305 200.058L199.308 200.058L199.308 200.1L199.31 200.146L202.116 200.949L203.152 200.893L203.234 201.205C203.27 201.337 203.431 201.418 203.594 201.387C203.758 201.355 203.861 201.222 203.825 201.089L203.764 200.859L204.662 200.81L204.745 201.122C204.78 201.254 204.941 201.336 205.105 201.304C205.268 201.272 205.371 201.139 205.336 201.006L205.275 200.776L206.172 200.727L206.256 201.039C206.291 201.172 206.451 201.253 206.615 201.221C206.778 201.189 206.882 201.056 206.847 200.924L206.785 200.693L207.683 200.644L207.766 200.956C207.801 201.089 207.962 201.17 208.126 201.138C208.289 201.107 208.393 200.973 208.357 200.841L208.296 200.61L209.194 200.562L209.276 200.873C209.312 201.006 209.473 201.087 209.636 201.056C209.8 201.024 209.903 200.891 209.867 200.758L209.806 200.528L210.704 200.479L210.787 200.791C210.822 200.923 210.983 201.005 211.147 200.973C211.309 200.941 211.413 200.808 211.378 200.675L211.317 200.445L212.215 200.396L212.298 200.708C212.333 200.84 212.494 200.922 212.657 200.89C212.821 200.858 212.924 200.725 212.889 200.592L212.828 200.362L213.725 200.313L213.809 200.625C213.844 200.758 214.004 200.839 214.168 200.807C214.331 200.776 214.435 200.642 214.4 200.51L214.338 200.279L215.236 200.23L215.319 200.542C215.354 200.675 215.515 200.756 215.679 200.724C215.842 200.693 215.945 200.559 215.91 200.427L215.849 200.196L216.747 200.147L216.829 200.459C216.864 200.592 217.026 200.673 217.189 200.641C217.352 200.61 217.456 200.477 217.42 200.344L217.359 200.114L218.257 200.065L218.34 200.376C218.375 200.509 218.536 200.59 218.699 200.559C218.862 200.527 218.966 200.394 218.931 200.261L218.87 200.031L219.767 199.982L219.851 200.298Z" fill="#B6ACFF"/>
</g>
</g>
<defs>
<clipPath id="clip0_2667_23002">
<rect width="256" height="144" fill="white" transform="translate(0 101)"/>
</clipPath>
</defs>
</svg>
