<svg width="208" height="20" fill="none" xmlns="http://www.w3.org/2000/svg"><g clip-path="url(#a)"><path d="M115.3 9.6543h-1.751v1.6278h1.751V9.6543ZM115.3 8.02637h-1.751V9.6541h1.751V8.02637ZM115.3 6.39844h-1.751V8.0262h1.751V6.39844Z" stroke="#C9CACA" stroke-width=".1856" stroke-miterlimit="10" stroke-dasharray="0.56 0.56"/><path d="M115.3 4.771h-1.751v1.62775h1.751V4.771ZM115.3 3.14307h-1.751v1.62775h1.751V3.14307ZM115.3 1.51514h-1.751V3.1429h1.751V1.51514ZM115.3 11.2817h-1.751v1.6278h1.751v-1.6278ZM115.3 12.9414h-1.751v1.6278h1.751v-1.6278ZM115.3 14.5693h-1.751v1.6278h1.751v-1.6278ZM115.3 16.1973h-1.751v1.6277h1.751v-1.6277Z" stroke="#C9CACA" stroke-width=".1856" stroke-miterlimit="10" stroke-dasharray="0.56 0.56"/><path d="M115.3 17.8247h-1.751v1.6278h1.751v-1.6278Z" stroke="#C9CACA" stroke-width=".1856" stroke-miterlimit="10" stroke-dasharray="0.56 0.56"/><path d="M-.0778809 5.91992v2.23417H3.5266v8.80901h2.60895V8.15409h3.70747V5.91992H-.0778809ZM33.5983 14.8246c-2.0254 0-3.6388-1.5321-3.6388-3.3832 0-1.88311 1.6477-3.38319 3.6388-3.38319.9955 0 1.9224.383 2.5746.98942l1.6821-1.56392c-1.0985-1.02133-2.5746-1.62775-4.2567-1.62775-3.3299 0-6.0075 2.4895-6.0075 5.58544 0 3.0959 2.6776 5.5854 6.0075 5.5854 1.6477 0 3.1582-.6383 4.2567-1.6278l-1.6821-1.5639c-.6522.6064-1.5448.9895-2.5746.9895ZM50.1101 5.91992v4.46838h-4.8403V5.91992h-2.609v4.46838h-2.403v2.2341h2.403v4.3088h2.609v-4.3088h4.8403v4.3088h2.6089V5.91992h-2.6089ZM17.2235 12.4948h5.5955v-2.1704h-5.5955V8.09025h6.385V5.91992h-8.9597v4.40448h-2.403v2.1704h2.403v4.4683h9.0284v-2.1703h-6.4537v-2.298ZM79.1521 5.91992h-2.6433V16.9631h8.5478v-2.2023h-5.9045V5.91992ZM110.322 5.91992l-2.883 4.43638-2.815-4.43638h-3.056l4.566 6.67058v4.4045h2.609v-4.4364l4.566-6.63868h-2.987ZM96.3506 5.85596h-2.403l-3.0552 6.70244h-3.3985v2.2342h2.403l-.9955 2.2023h2.6776l.9612-2.2023h5.2522l.9612 2.2023H101.5L96.3506 5.85596Zm-2.9179 6.67054 1.6478-3.76613 1.6477 3.76613h-3.2955ZM72.6297 8.18601c-.206-.47875-.5149-.86176-.8925-1.21284-.3776-.35108-.8582-.60642-1.4075-.766-.5492-.1915-1.2015-.28725-1.9224-.28725h-6.0761v5.55348h-2.403v2.1704h2.403v3.3193h2.609v-3.3193h3.1925c.6522 0 1.3045-.0958 1.8881-.2554.5835-.1596 1.0985-.4149 1.5104-.7341.4463-.3191.7895-.734 1.0298-1.2128.2403-.4787.3777-1.0532.3777-1.69158v-.03191c0-.54259-.103-1.05325-.309-1.532Zm-2.3343 1.62774c0 .47875-.1717.86175-.5493 1.18095-.3776.3191-.8582.4787-1.5104.4787h-3.2612V8.09025h3.2269c.6522 0 1.1671.12768 1.5447.41493.3433.31916.5493.73407.5493 1.30857ZM125.77 5.76025h2.437l5.15 11.23465h-2.747l-1.098-2.4895h-5.081l-1.098 2.4895h-2.678l5.115-11.23465Zm2.781 6.57485-1.579-3.60661-1.614 3.60661h3.193ZM139.948 17.1865c-.687 0-1.339-.1277-1.923-.3511-.583-.2234-1.098-.5426-1.51-.9575-.412-.4149-.755-.8617-.996-1.4043-.24-.5426-.377-1.1171-.377-1.7235s.137-1.1809.377-1.7235c.241-.5426.584-1.0214.996-1.43628.412-.41491.927-.73408 1.51-.9575.584-.22341 1.236-.35108 1.957-.35108.858 0 1.579.12767 2.163.383.583.25534 1.064.60642 1.51 1.05325l-1.579 1.59581c-.309-.2872-.618-.5106-.927-.7021-.309-.1596-.721-.2554-1.167-.2554-.343 0-.618.0639-.892.1915-.275.1277-.515.2873-.687.5107-.206.2234-.343.4468-.446.7341-.103.2872-.172.5745-.172.8936v.032c0 .3191.069.6383.172.9255.103.2873.274.5426.48.766.206.2235.447.383.721.5107.275.1277.618.1915.961.1915.447 0 .824-.0957 1.133-.2553.344-.1596.653-.383.961-.6703l1.545 1.4363c-.446.4468-.961.8298-1.545 1.1171-.617.3191-1.338.4468-2.265.4468ZM149.182 17.1545c-.446 0-.858-.0638-1.236-.1596-.377-.0957-.721-.2872-.995-.5106-.275-.2234-.515-.5107-.687-.8299-.171-.3191-.24-.7021-.24-1.117v-.032c0-.4787.103-.8617.275-1.2128.171-.3511.446-.6383.755-.8617.309-.2235.721-.383 1.167-.5107.446-.0958.961-.1596 1.51-.1596.481 0 .893.0319 1.236.0958.344.0638.687.1595 1.03.2553v-.1596c0-.5107-.172-.8937-.515-1.149-.343-.2553-.824-.383-1.476-.383-.515 0-.961.0319-1.339.1277-.377.0638-.789.1915-1.201.3511l-.653-1.85121c.515-.1915 1.03-.35108 1.58-.47875.549-.12766 1.201-.1915 1.991-.1915.721 0 1.338.09576 1.853.25534.515.15958.927.41491 1.271.70216.343.31917.583.70216.755 1.18096.171.4787.24.9894.24 1.5639v4.9471h-2.54v-.9256c-.309.3191-.687.6064-1.133.7979-.446.1915-.996.2553-1.648.2553Zm.79-1.6596c.618 0 1.098-.1277 1.476-.415.377-.2872.549-.6383.549-1.0851v-.4149c-.24-.0958-.481-.1596-.755-.2235-.275-.0638-.584-.0957-.893-.0957-.549 0-.995.0957-1.339.3192-.308.1915-.48.4787-.48.8936v.0319c0 .3192.137.5745.378.766.24.1915.652.2235 1.064.2235ZM161.643 17.1547c-.549 0-1.064-.0957-1.579-.2872-.515-.1915-.961-.4788-1.339-.8618-.377-.383-.686-.8298-.927-1.3724-.24-.5426-.343-1.1809-.343-1.8831v-.0319c0-.7022.103-1.3405.343-1.8831.241-.5426.55-1.02133.927-1.37242.378-.383.824-.67025 1.339-.86175s1.03-.28725 1.579-.28725c.687 0 1.27.12766 1.717.383.446.25533.823.54259 1.132.89367V5.37744h2.609V17.027h-2.609v-1.2128c-.309.4149-.72.7341-1.167.9894-.412.2234-.995.3511-1.682.3511Zm.687-2.0427c.309 0 .583-.0638.858-.1595.275-.1277.515-.2873.686-.4788.206-.2234.344-.4468.481-.766.103-.2872.172-.6064.172-.9575v-.0319c0-.3511-.069-.6703-.172-.9575-.137-.2873-.275-.5426-.481-.766-.205-.1915-.446-.3511-.686-.4788-.275-.0957-.549-.1596-.858-.1596-.309 0-.584.0639-.859.1596-.274.1277-.514.2873-.72.4788-.206.2234-.378.4468-.481.7341-.137.2872-.172.6064-.172.9575v.0319c0 .3511.069.6702.172.9575.103.2872.275.5426.481.766.206.1915.446.3511.72.4787.275.1277.55.1915.859.1915ZM174.997 17.1865c-.687 0-1.339-.0958-1.922-.3192-.584-.2234-1.099-.5106-1.545-.8936-.412-.383-.755-.8618-.996-1.4044-.24-.5426-.377-1.149-.377-1.7873v-.0319c0-.6064.103-1.1809.343-1.7235.206-.5426.549-1.0214.927-1.43628.412-.41491.892-.73408 1.442-.9575.549-.22341 1.167-.35108 1.853-.35108.756 0 1.442.12767 1.991.383.55.25534 1.03.60641 1.408 1.02133.378.41493.652.92563.824 1.50013.171.5745.274 1.149.274 1.7554v.3191c0 .0958 0 .2235-.034.3192H172.8c.137.5426.378.9575.79 1.2448.412.2872.892.4149 1.476.4149.446 0 .824-.0639 1.167-.2234.343-.1277.686-.3511 1.064-.6703l1.476 1.2128c-.446.5107-.961.8937-1.579 1.181-.618.2872-1.373.4468-2.197.4468Zm1.682-5.1386c-.069-.5426-.275-.9894-.618-1.3086-.343-.3191-.755-.5106-1.339-.5106-.549 0-.995.1595-1.338.4787-.344.3192-.55.766-.653 1.3405h3.948ZM182.275 8.4415h2.609v1.21283c.137-.1915.309-.35107.48-.51066.172-.15958.378-.31917.584-.44684.206-.12766.446-.22341.721-.31917.274-.06383.583-.12766.892-.12766.618 0 1.133.12767 1.579.35109.447.22341.79.5745 1.03 1.02134.412-.44684.858-.79793 1.339-1.02134.481-.22342 1.064-.35109 1.682-.35109.961 0 1.717.25533 2.3.79792.549.54258.824 1.30858.824 2.32988v5.5855h-2.609v-4.7556c0-.5745-.137-1.0214-.412-1.3086-.275-.2873-.652-.4468-1.133-.4468-.48 0-.892.1595-1.167.4468-.275.2872-.412.7341-.412 1.3086v4.7556h-2.609v-4.7556c0-.5745-.137-1.0214-.377-1.3086-.275-.2873-.653-.4468-1.133-.4468-.481 0-.893.1595-1.167.4468-.275.2872-.412.7341-.412 1.3086v4.7556h-2.609V8.4415ZM201.464 19.6123c-.48 0-.892-.0639-1.27-.1596-.378-.0958-.721-.2554-1.03-.4469l.858-1.7554c.172.0958.344.1596.55.2553.206.0958.377.0958.549.0958.24 0 .412-.0319.549-.1277.138-.0638.241-.2234.378-.4468l-3.605-8.58559h2.747l2.094 5.80879 1.991-5.80879h2.712l-3.502 8.77709c-.172.4468-.343.7979-.549 1.1171-.206.3191-.412.5426-.652.7341-.241.1915-.515.3191-.79.4149-.275.0957-.618.1277-1.03.1277Z" fill="#070130"/></g><defs><clipPath id="a"><path fill="#fff" d="M0 0h208v20H0z"/></clipPath></defs></svg>