<svg width="30" height="9" viewBox="0 0 30 9" xmlns="http://www.w3.org/2000/svg">
<path d="M0 0V1.78978H2.47828V8.84662H4.27209V1.78978H6.82118V0H0Z" />
<path d="M18.3043 1.81535C18.1627 1.43182 17.9502 1.125 17.6906 0.84375C17.431 0.562499 17.1005 0.357954 16.7229 0.230113C16.3453 0.0767032 15.8968 0 15.4011 0H11.2235V4.44888H9.57129V6.18752H11.2235V8.84662H13.0173V6.18752H15.2123C15.6608 6.18752 16.1092 6.11081 16.5105 5.98297C16.9117 5.85513 17.2658 5.65059 17.549 5.39491C17.8558 5.13922 18.0918 4.80683 18.2571 4.42331C18.4223 4.03978 18.5167 3.57956 18.5167 3.06819V3.04262C18.5167 2.60796 18.4459 2.19887 18.3043 1.81535ZM16.6993 3.11932C16.6993 3.50285 16.5813 3.80967 16.3217 4.06535C16.062 4.32104 15.7316 4.44888 15.2831 4.44888H13.0409V1.73864H15.2595C15.708 1.73864 16.062 1.84092 16.3217 2.07103C16.5577 2.32671 16.6993 2.6591 16.6993 3.11932Z" />
<path d="M24.0964 0H25.7722L29.3126 9H27.4243L26.6691 7.00568H23.1759L22.4206 9H20.5796L24.0964 0ZM26.0082 5.26705L24.9225 2.37784L23.8131 5.26705H26.0082Z" />
</svg>
